<svg width="325" height="75" viewBox="0 0 325 75" fill="none" xmlns="http://www.w3.org/2000/svg">
<rect x="3.5" y="3.5" width="318" height="68" rx="34" fill="#FEFEFE" stroke="#829993" stroke-width="7"/>
<path d="M168 21C168 21 155.979 33.0208 152.797 36.2028C149.615 39.3848 149.969 43.981 152.797 46.8094M152.797 46.8094C155.626 49.6378 160.575 49.6378 163.404 46.8094C166.232 43.981 178.607 31.6066 178.607 31.6066M152.797 46.8094L145.019 54.5876" stroke="#829993" stroke-width="5" stroke-linecap="round" stroke-linejoin="round"/>
<path d="M129.142 50.2842C121.332 42.4737 121.332 29.8104 129.142 22" stroke="#829993" stroke-width="5" stroke-linecap="round"/>
<path d="M136.213 43.2132C132.308 39.3079 132.308 32.9763 136.213 29.071" stroke="#829993" stroke-width="5" stroke-linecap="round"/>
<path d="M197.142 50.2842C204.953 42.4737 204.953 29.8104 197.142 22" stroke="#829993" stroke-width="5" stroke-linecap="round"/>
<path d="M190.071 43.2132C193.976 39.3079 193.976 32.9763 190.071 29.071" stroke="#829993" stroke-width="5" stroke-linecap="round"/>
</svg>
