<svg width="350" height="50" viewBox="0 0 350 50" fill="none" xmlns="http://www.w3.org/2000/svg">
<path d="M0 10C0 4.47715 4.47715 0 10 0H175V50H10C4.47715 50 0 45.5228 0 40V10Z" fill="#ABBAB6"/>
<path d="M350 10C350 4.47715 345.523 0 340 0H175V50H340C345.523 50 350 45.5228 350 40V10Z" fill="#D5DDDB"/>
<path d="M213 12.5V37.5C213 37.7761 212.776 38 212.5 38H192.5C192.224 38 192 37.7761 192 37.5V20.0355C192 19.9029 192.053 19.7757 192.146 19.682L199.682 12.1464C199.776 12.0527 199.903 12 200.036 12H212.5C212.776 12 213 12.2239 213 12.5Z" fill="#F9FBFA" stroke="#ABBAB6" stroke-width="4" stroke-linejoin="bevel"/>
<path d="M200 12V20H192" stroke="#ABBAB6" stroke-width="4" stroke-linejoin="round"/>
<path d="M158 12.5V37.5C158 37.7761 157.776 38 157.5 38H137.5C137.224 38 137 37.7761 137 37.5V12.5C137 12.2239 137.224 12 137.5 12H157.5C157.776 12 158 12.2239 158 12.5Z" fill="#F9FBFA" stroke="#677D78" stroke-width="4" stroke-linejoin="bevel"/>
<path d="M142.5 17.5H151.5" stroke="#677D78" stroke-width="3" stroke-linecap="round" stroke-linejoin="round"/>
<path d="M142.5 22.5H150" stroke="#677D78" stroke-width="3" stroke-linecap="round" stroke-linejoin="round"/>
<path d="M142.5 27.5H152.5" stroke="#677D78" stroke-width="3" stroke-linecap="round" stroke-linejoin="round"/>
<path d="M142.5 32.5H147.5" stroke="#677D78" stroke-width="3" stroke-linecap="round" stroke-linejoin="round"/>
<path d="M235.42 19.0598C235.038 19.0598 234.706 18.9186 234.423 18.6364C234.141 18.3541 234 18.022 234 17.6401V17.3163C234 16.9344 234.141 16.6023 234.423 16.32C234.706 16.0378 235.038 15.8966 235.42 15.8966H251.684C252.066 15.8966 252.398 16.0378 252.68 16.32C252.962 16.6023 253.095 16.9344 253.078 17.3163C252.962 22.5799 251.675 26.5899 249.218 29.3462C246.777 32.1025 243.058 33.8211 238.06 34.5019C237.661 34.5517 237.296 34.4604 236.964 34.2279C236.648 33.9954 236.457 33.68 236.391 33.2814L236.341 32.9826C236.275 32.6173 236.35 32.2852 236.565 31.9863C236.781 31.6708 237.08 31.4882 237.462 31.4384C241.347 30.907 244.237 29.6866 246.13 27.7771C248.039 25.8676 249.16 23.0365 249.492 19.2839C249.492 19.1345 249.425 19.0598 249.293 19.0598H235.42Z" fill="#677D78"/>
<path d="M261.945 22.0486C261.58 22.0486 261.264 21.924 260.999 21.675C260.75 21.4093 260.625 21.0938 260.625 20.7285C260.625 20.3632 260.75 20.056 260.999 19.807C261.264 19.5413 261.58 19.4085 261.945 19.4085H275.544C275.91 19.4085 276.217 19.5413 276.466 19.807C276.731 20.056 276.864 20.3632 276.864 20.7285C276.864 21.7248 276.715 22.5633 276.416 23.2441C275.619 25.0208 274.382 26.5484 272.705 27.8269C272.373 28.076 272.007 28.1673 271.609 28.1009C271.227 28.0178 270.912 27.8186 270.663 27.5031L270.613 27.4284C270.38 27.1295 270.297 26.7974 270.364 26.4321C270.43 26.0668 270.613 25.768 270.912 25.5355C272.207 24.5226 273.095 23.4184 273.577 22.2229C273.61 22.1067 273.568 22.0486 273.452 22.0486H261.945ZM266.976 23.4932H267.151C267.533 23.4932 267.865 23.6343 268.147 23.9166C268.429 24.1822 268.562 24.506 268.545 24.8879C268.479 27.4616 268.13 29.4458 267.499 30.8406C266.868 32.2188 265.822 33.3562 264.361 34.2528C264.012 34.4521 263.639 34.5019 263.24 34.4022C262.858 34.3192 262.551 34.1034 262.319 33.7547L262.294 33.7049C262.095 33.3894 262.037 33.0573 262.12 32.7086C262.219 32.3433 262.427 32.0527 262.742 31.8369C263.738 31.1893 264.436 30.3591 264.834 29.3462C265.249 28.3333 265.49 26.8472 265.557 24.8879C265.573 24.506 265.714 24.1822 265.98 23.9166C266.262 23.6343 266.594 23.4932 266.976 23.4932Z" fill="#677D78"/>
<path d="M283.365 25.4608L283.315 25.1868C283.249 24.8215 283.323 24.4811 283.539 24.1656C283.772 23.8501 284.079 23.6509 284.461 23.5679C287.499 23.0033 290.438 22.0569 293.278 20.7285C296.134 19.3836 298.599 17.7812 300.675 15.9215C300.957 15.6559 301.289 15.5313 301.671 15.5479C302.053 15.5645 302.369 15.714 302.618 15.9963L302.817 16.2204C303.083 16.5193 303.199 16.868 303.166 17.2665C303.149 17.665 302.991 17.9971 302.692 18.2628C300.949 19.807 298.948 21.2017 296.69 22.4471C296.574 22.5135 296.516 22.6131 296.516 22.746C296.516 22.7626 296.516 22.7875 296.516 22.8207C296.532 22.8373 296.54 22.8539 296.54 22.8705V33.5803C296.54 33.9622 296.399 34.2943 296.117 34.5766C295.835 34.8589 295.503 35 295.121 35H294.374C293.992 35 293.66 34.8589 293.377 34.5766C293.095 34.2943 292.954 33.9622 292.954 33.5803V24.4396C292.954 24.3234 292.896 24.2819 292.78 24.3151C290.306 25.3445 287.707 26.1166 284.984 26.6314C284.602 26.6978 284.253 26.6148 283.938 26.3823C283.622 26.1499 283.431 25.8427 283.365 25.4608Z" fill="#677D78"/>
<path d="M319.529 34.6513C319.147 34.6679 318.815 34.5351 318.533 34.2528C318.267 33.9705 318.134 33.6384 318.134 33.2565V16.3948C318.134 16.0129 318.276 15.6891 318.558 15.4234C318.84 15.1411 319.172 15 319.554 15H320.177C320.559 15 320.891 15.1411 321.173 15.4234C321.455 15.6891 321.597 16.0129 321.597 16.3948V30.99C321.597 31.1229 321.663 31.1727 321.796 31.1395C323.174 30.7576 324.253 30.027 325.034 28.9477C325.814 27.8518 326.362 26.3159 326.677 24.34C326.744 23.9581 326.935 23.6509 327.25 23.4184C327.566 23.186 327.906 23.0946 328.271 23.1445L328.62 23.1943C329.002 23.2441 329.318 23.4267 329.567 23.7422C329.816 24.0411 329.907 24.3815 329.841 24.7634C328.911 31.0731 325.474 34.369 319.529 34.6513ZM308.122 33.7298L307.823 33.2814C307.624 32.9494 307.566 32.609 307.649 32.2603C307.748 31.895 307.964 31.6127 308.296 31.4134C309.641 30.5832 310.513 29.4458 310.912 28.0012C311.31 26.5567 311.509 23.9083 311.509 20.056V16.3948C311.509 16.0129 311.642 15.6891 311.908 15.4234C312.19 15.1411 312.522 15 312.904 15H313.502C313.884 15 314.208 15.1411 314.473 15.4234C314.755 15.6891 314.897 16.0129 314.897 16.3948V20.056C314.897 23.1112 314.747 25.5355 314.448 27.3288C314.149 29.1054 313.668 30.5168 313.004 31.5629C312.34 32.609 311.385 33.4973 310.139 34.2279C309.791 34.4271 309.425 34.477 309.044 34.3773C308.662 34.2943 308.355 34.0785 308.122 33.7298Z" fill="#677D78"/>
<path d="M235.42 19.0598C235.038 19.0598 234.706 18.9186 234.423 18.6364C234.141 18.3541 234 18.022 234 17.6401V17.3163C234 16.9344 234.141 16.6023 234.423 16.32C234.706 16.0378 235.038 15.8966 235.42 15.8966H251.684C252.066 15.8966 252.398 16.0378 252.68 16.32C252.962 16.6023 253.095 16.9344 253.078 17.3163C252.962 22.5799 251.675 26.5899 249.218 29.3462C246.777 32.1025 243.058 33.8211 238.06 34.5019C237.661 34.5517 237.296 34.4604 236.964 34.2279C236.648 33.9954 236.457 33.68 236.391 33.2814L236.341 32.9826C236.275 32.6173 236.35 32.2852 236.565 31.9863C236.781 31.6708 237.08 31.4882 237.462 31.4384C241.347 30.907 244.237 29.6866 246.13 27.7771C248.039 25.8676 249.16 23.0365 249.492 19.2839C249.492 19.1345 249.425 19.0598 249.293 19.0598H235.42Z" fill="#ABBAB6"/>
<path d="M261.945 22.0486C261.58 22.0486 261.264 21.924 260.999 21.675C260.75 21.4093 260.625 21.0938 260.625 20.7285C260.625 20.3632 260.75 20.056 260.999 19.807C261.264 19.5413 261.58 19.4085 261.945 19.4085H275.544C275.91 19.4085 276.217 19.5413 276.466 19.807C276.731 20.056 276.864 20.3632 276.864 20.7285C276.864 21.7248 276.715 22.5633 276.416 23.2441C275.619 25.0208 274.382 26.5484 272.705 27.8269C272.373 28.076 272.007 28.1673 271.609 28.1009C271.227 28.0178 270.912 27.8186 270.663 27.5031L270.613 27.4284C270.38 27.1295 270.297 26.7974 270.364 26.4321C270.43 26.0668 270.613 25.768 270.912 25.5355C272.207 24.5226 273.095 23.4184 273.577 22.2229C273.61 22.1067 273.568 22.0486 273.452 22.0486H261.945ZM266.976 23.4932H267.151C267.533 23.4932 267.865 23.6343 268.147 23.9166C268.429 24.1822 268.562 24.506 268.545 24.8879C268.479 27.4616 268.13 29.4458 267.499 30.8406C266.868 32.2188 265.822 33.3562 264.361 34.2528C264.012 34.4521 263.639 34.5019 263.24 34.4022C262.858 34.3192 262.551 34.1034 262.319 33.7547L262.294 33.7049C262.095 33.3894 262.037 33.0573 262.12 32.7086C262.219 32.3433 262.427 32.0527 262.742 31.8369C263.738 31.1893 264.436 30.3591 264.834 29.3462C265.249 28.3333 265.49 26.8472 265.557 24.8879C265.573 24.506 265.714 24.1822 265.98 23.9166C266.262 23.6343 266.594 23.4932 266.976 23.4932Z" fill="#ABBAB6"/>
<path d="M283.365 25.4608L283.315 25.1868C283.249 24.8215 283.323 24.4811 283.539 24.1656C283.772 23.8501 284.079 23.6509 284.461 23.5679C287.499 23.0033 290.438 22.0569 293.278 20.7285C296.134 19.3836 298.599 17.7812 300.675 15.9215C300.957 15.6559 301.289 15.5313 301.671 15.5479C302.053 15.5645 302.369 15.714 302.618 15.9963L302.817 16.2204C303.083 16.5193 303.199 16.868 303.166 17.2665C303.149 17.665 302.991 17.9971 302.692 18.2628C300.949 19.807 298.948 21.2017 296.69 22.4471C296.574 22.5135 296.516 22.6131 296.516 22.746C296.516 22.7626 296.516 22.7875 296.516 22.8207C296.532 22.8373 296.54 22.8539 296.54 22.8705V33.5803C296.54 33.9622 296.399 34.2943 296.117 34.5766C295.835 34.8589 295.503 35 295.121 35H294.374C293.992 35 293.66 34.8589 293.377 34.5766C293.095 34.2943 292.954 33.9622 292.954 33.5803V24.4396C292.954 24.3234 292.896 24.2819 292.78 24.3151C290.306 25.3445 287.707 26.1166 284.984 26.6314C284.602 26.6978 284.253 26.6148 283.938 26.3823C283.622 26.1499 283.431 25.8427 283.365 25.4608Z" fill="#ABBAB6"/>
<path d="M319.529 34.6513C319.147 34.6679 318.815 34.5351 318.533 34.2528C318.267 33.9705 318.134 33.6384 318.134 33.2565V16.3948C318.134 16.0129 318.276 15.6891 318.558 15.4234C318.84 15.1411 319.172 15 319.554 15H320.177C320.559 15 320.891 15.1411 321.173 15.4234C321.455 15.6891 321.597 16.0129 321.597 16.3948V30.99C321.597 31.1229 321.663 31.1727 321.796 31.1395C323.174 30.7576 324.253 30.027 325.034 28.9477C325.814 27.8518 326.362 26.3159 326.677 24.34C326.744 23.9581 326.935 23.6509 327.25 23.4184C327.566 23.186 327.906 23.0946 328.271 23.1445L328.62 23.1943C329.002 23.2441 329.318 23.4267 329.567 23.7422C329.816 24.0411 329.907 24.3815 329.841 24.7634C328.911 31.0731 325.474 34.369 319.529 34.6513ZM308.122 33.7298L307.823 33.2814C307.624 32.9494 307.566 32.609 307.649 32.2603C307.748 31.895 307.964 31.6127 308.296 31.4134C309.641 30.5832 310.513 29.4458 310.912 28.0012C311.31 26.5567 311.509 23.9083 311.509 20.056V16.3948C311.509 16.0129 311.642 15.6891 311.908 15.4234C312.19 15.1411 312.522 15 312.904 15H313.502C313.884 15 314.208 15.1411 314.473 15.4234C314.755 15.6891 314.897 16.0129 314.897 16.3948V20.056C314.897 23.1112 314.747 25.5355 314.448 27.3288C314.149 29.1054 313.668 30.5168 313.004 31.5629C312.34 32.609 311.385 33.4973 310.139 34.2279C309.791 34.4271 309.425 34.477 309.044 34.3773C308.662 34.2943 308.355 34.0785 308.122 33.7298Z" fill="#ABBAB6"/>
<path d="M23.075 15.425H35.925C36.3083 15.425 36.6333 15.5666 36.9 15.85C37.1833 16.1166 37.325 16.4416 37.325 16.825V17C37.325 17.3833 37.1833 17.7166 36.9 18C36.6333 18.2833 36.3083 18.425 35.925 18.425H23.075C22.6917 18.425 22.3583 18.2833 22.075 18C21.8083 17.7166 21.675 17.3833 21.675 17V16.825C21.675 16.4416 21.8083 16.1166 22.075 15.85C22.3583 15.5666 22.6917 15.425 23.075 15.425ZM20.175 25.175C19.7917 25.175 19.4583 25.0333 19.175 24.75C18.8917 24.4666 18.75 24.1333 18.75 23.75V23.575C18.75 23.1916 18.8917 22.8666 19.175 22.6C19.4583 22.3166 19.7917 22.175 20.175 22.175H38.825C39.2083 22.175 39.5417 22.3166 39.825 22.6C40.1083 22.8666 40.25 23.1916 40.25 23.575V23.75C40.25 24.1333 40.1083 24.4666 39.825 24.75C39.5417 25.0333 39.2083 25.175 38.825 25.175H32.3C32.15 25.175 32.075 25.2416 32.075 25.375C32.0417 27.9583 31.4167 30.0416 30.2 31.625C28.9833 33.1916 27.1083 34.3416 24.575 35.075C24.1917 35.1916 23.825 35.15 23.475 34.95C23.125 34.75 22.8833 34.4583 22.75 34.075L22.65 33.775C22.5333 33.4083 22.5667 33.0583 22.75 32.725C22.95 32.3916 23.2333 32.1583 23.6 32.025C25.3667 31.4583 26.625 30.6583 27.375 29.625C28.1417 28.5916 28.5417 27.175 28.575 25.375C28.575 25.2416 28.5083 25.175 28.375 25.175H20.175Z" fill="#677D78"/>
<path d="M45.675 29.85C45.2917 29.8666 44.95 29.7416 44.65 29.475C44.3667 29.2083 44.2167 28.8833 44.2 28.5V28.325C44.1833 27.9416 44.3083 27.6083 44.575 27.325C44.8417 27.0416 45.1667 26.8916 45.55 26.875L52.7 26.625C52.8167 26.625 52.875 26.55 52.875 26.4L52.475 21.6C52.475 21.4666 52.4 21.4 52.25 21.4L46.675 21.6C46.2917 21.6166 45.95 21.4916 45.65 21.225C45.3667 20.9416 45.2167 20.6083 45.2 20.225V20.05C45.1833 19.6666 45.3083 19.3333 45.575 19.05C45.8417 18.7666 46.1667 18.6166 46.55 18.6L51.975 18.4C52.1083 18.4 52.175 18.325 52.175 18.175L51.975 15.825C51.9417 15.4416 52.05 15.1083 52.3 14.825C52.5667 14.525 52.8917 14.3583 53.275 14.325L53.95 14.275C54.3333 14.2416 54.675 14.3583 54.975 14.625C55.275 14.875 55.4417 15.1916 55.475 15.575L55.7 18.05C55.7 18.2 55.775 18.275 55.925 18.275L62.375 18.05C62.7583 18.0333 63.0917 18.1583 63.375 18.425C63.675 18.6916 63.8333 19.0166 63.85 19.4V19.575C63.8667 19.9583 63.7417 20.2916 63.475 20.575C63.2083 20.8583 62.8833 21.0083 62.5 21.025L56.175 21.25C56.0417 21.25 55.975 21.325 55.975 21.475L56.4 26.275C56.4 26.425 56.475 26.5 56.625 26.5L63.375 26.275C63.7583 26.2583 64.0917 26.3833 64.375 26.65C64.675 26.9166 64.8333 27.2416 64.85 27.625V27.8C64.8667 28.1833 64.7417 28.5166 64.475 28.8C64.2083 29.0833 63.8833 29.2333 63.5 29.25L56.875 29.475C56.7583 29.475 56.7 29.55 56.7 29.7L57.075 34.175C57.1083 34.5583 56.9917 34.8916 56.725 35.175C56.475 35.475 56.1583 35.6416 55.775 35.675L55.1 35.725C54.7167 35.7583 54.375 35.6416 54.075 35.375C53.775 35.125 53.6083 34.8083 53.575 34.425L53.175 29.825C53.175 29.6916 53.1 29.625 52.95 29.625L45.675 29.85Z" fill="#677D78"/>
<path d="M70.275 33.575L70.15 33.325C69.9667 32.9916 69.9333 32.6416 70.05 32.275C70.1667 31.8916 70.3917 31.6083 70.725 31.425C76.7583 28.1916 81.1333 24.0333 83.85 18.95C83.8833 18.9166 83.8833 18.875 83.85 18.825C83.8167 18.775 83.775 18.75 83.725 18.75H73.1C72.7167 18.75 72.3833 18.6083 72.1 18.325C71.8167 18.0416 71.675 17.7083 71.675 17.325V17.075C71.675 16.6916 71.8167 16.3666 72.1 16.1C72.3833 15.8166 72.7167 15.675 73.1 15.675H86.25C86.6333 15.675 86.9667 15.8166 87.25 16.1C87.5333 16.3666 87.675 16.6916 87.675 17.075V17.325C87.675 18.325 87.4667 19.2333 87.05 20.05C86 22.1 84.6417 24.0583 82.975 25.925C82.875 26.025 82.875 26.125 82.975 26.225C85.1583 28.225 87.1 30.05 88.8 31.7C89.0833 31.9833 89.225 32.3166 89.225 32.7C89.225 33.0833 89.0917 33.4166 88.825 33.7L88.525 33.975C88.2417 34.2416 87.9 34.375 87.5 34.375C87.1167 34.375 86.7833 34.2333 86.5 33.95C84.4 31.8833 82.4833 30.0666 80.75 28.5C80.65 28.4333 80.5417 28.4416 80.425 28.525C77.975 30.775 75.25 32.6666 72.25 34.2C71.9 34.3833 71.525 34.4083 71.125 34.275C70.7417 34.1583 70.4583 33.925 70.275 33.575Z" fill="#677D78"/>
<path d="M99.075 35.325C98.6917 35.325 98.3583 35.1833 98.075 34.9C97.8083 34.6333 97.675 34.3083 97.675 33.925V16.075C97.675 15.6916 97.8083 15.3666 98.075 15.1C98.3583 14.8166 98.6917 14.675 99.075 14.675H99.75C100.133 14.675 100.467 14.8166 100.75 15.1C101.033 15.3666 101.175 15.6916 101.175 16.075V21.475C101.175 21.625 101.233 21.7083 101.35 21.725C105.317 22.6916 109.35 23.9 113.45 25.35C113.817 25.4833 114.083 25.725 114.25 26.075C114.433 26.425 114.458 26.7916 114.325 27.175L114.175 27.65C114.042 28.0166 113.8 28.2833 113.45 28.45C113.117 28.6166 112.767 28.6416 112.4 28.525C108.45 27.1416 104.767 26.0166 101.35 25.15C101.3 25.1333 101.258 25.15 101.225 25.2C101.192 25.2333 101.175 25.275 101.175 25.325V33.925C101.175 34.3083 101.033 34.6333 100.75 34.9C100.467 35.1833 100.133 35.325 99.75 35.325H99.075Z" fill="#677D78"/>
</svg>
