<svg width="325" height="75" viewBox="0 0 325 75" fill="none" xmlns="http://www.w3.org/2000/svg">
<rect x="3.5" y="3.5" width="318" height="68" rx="34" fill="#FEFEFE" stroke="#829993" stroke-width="7"/>
<path d="M180.142 52.2842C187.953 44.4737 187.953 31.8104 180.142 24" stroke="#829993" stroke-width="5" stroke-linecap="round"/>
<path d="M173.071 45.2132C176.976 41.3079 176.976 34.9763 173.071 31.071" stroke="#829993" stroke-width="5" stroke-linecap="round"/>
<path d="M142 27.0796C142 26.5273 142.448 26.0796 143 26.0796H149C149.552 26.0796 150 26.5273 150 27.0796V48.7833C150 49.3356 149.552 49.7833 149 49.7833H143C142.448 49.7833 142 49.3356 142 48.7833V27.0796Z" fill="#829993"/>
<path d="M153 26.709C153 26.3606 153.181 26.0374 153.479 25.8557L164.812 18.9298C165.478 18.5226 166.333 19.0021 166.333 19.7831V56.2169C166.333 56.9979 165.478 57.4774 164.812 57.0702L153.479 50.1443C153.181 49.9626 153 49.6394 153 49.291V26.709Z" fill="#829993"/>
</svg>
