<svg width="325" height="75" viewBox="0 0 325 75" fill="none" xmlns="http://www.w3.org/2000/svg">
<rect x="3.5" y="3.5" width="318" height="68" rx="34" fill="#F0F3F2" stroke="#384944" stroke-width="7"/>
<path d="M180.333 23.6667C180.333 19.9848 177.349 17 173.667 17C169.985 17 167 19.9848 167 23.6667V38.8333C167 42.5152 169.985 45.5 173.667 45.5C177.349 45.5 180.333 42.5152 180.333 38.8333V23.6667Z" fill="#384944"/>
<path fill-rule="evenodd" clip-rule="evenodd" d="M184.333 36.6666C183.781 36.6666 183.333 37.1143 183.333 37.6666V38.6666C183.333 44.0054 179.005 48.3333 173.667 48.3333C168.328 48.3333 164 44.0054 164 38.6666V37.6666C164 37.1143 163.552 36.6666 163 36.6666H161C160.448 36.6666 160 37.1143 160 37.6666V38.6666C160 45.5351 165.067 51.2202 171.667 52.188V55H164.59C164.037 55 163.59 55.4477 163.59 56V58C163.59 58.5522 164.037 59 164.59 59H182.744C183.296 59 183.744 58.5522 183.744 58V56C183.744 55.4477 183.296 55 182.744 55H175.667V52.188C182.267 51.2202 187.333 45.5351 187.333 38.6666V37.6666C187.333 37.1143 186.886 36.6666 186.333 36.6666H184.333Z" fill="#384944"/>
<path d="M139 30L154 45M139 45L154 30" stroke="#384944" stroke-width="5" stroke-linecap="round"/>
</svg>
