<svg width="133" height="27" viewBox="0 0 133 27" fill="none" xmlns="http://www.w3.org/2000/svg">
<path d="M7.59999 14.1C5.39999 15.32 4.29999 16.89 4.29999 18.81C4.29999 19.71 4.50999 20.4 4.92999 20.88C5.34999 21.36 5.93999 21.6 6.69999 21.6C7.05999 21.6 7.33999 21.58 7.53999 21.54C7.71999 21.5 7.80999 21.39 7.80999 21.21V14.25C7.80999 14.19 7.77999 14.15 7.71999 14.13C7.67999 14.09 7.63999 14.08 7.59999 14.1ZM14.71 12.51C13.71 12.51 12.73 12.59 11.77 12.75C11.59 12.79 11.5 12.89 11.5 13.05V19.11C11.5 19.15 11.53 19.19 11.59 19.23C11.65 19.25 11.69 19.24 11.71 19.2C13.43 17.6 14.85 15.48 15.97 12.84C15.99 12.78 15.98 12.72 15.94 12.66C15.92 12.58 15.88 12.54 15.82 12.54C15.58 12.52 15.21 12.51 14.71 12.51ZM6.30999 25.02C4.54999 25.02 3.13999 24.5 2.07999 23.46C1.01999 22.4 0.48999 20.98 0.48999 19.2C0.48999 17.2 1.10999 15.42 2.34999 13.86C3.58999 12.28 5.33999 11.08 7.59999 10.26C7.73999 10.2 7.80999 10.09 7.80999 9.93V6.87C7.80999 6.69 7.71999 6.6 7.53999 6.6H3.39999C2.95999 6.6 2.57999 6.45 2.25999 6.15C1.95999 5.83 1.80999 5.45 1.80999 5.01C1.80999 4.57 1.95999 4.2 2.25999 3.9C2.57999 3.58 2.95999 3.42 3.39999 3.42H7.53999C7.71999 3.42 7.80999 3.33 7.80999 3.15V1.71C7.80999 1.25 7.96999 0.85 8.28999 0.510001C8.62999 0.17 9.02999 0 9.48999 0H9.78999C10.25 0 10.65 0.17 10.99 0.510001C11.33 0.85 11.5 1.25 11.5 1.71V3.15C11.5 3.33 11.58 3.42 11.74 3.42H22.6C23.04 3.42 23.41 3.58 23.71 3.9C24.03 4.2 24.19 4.57 24.19 5.01C24.19 5.45 24.03 5.83 23.71 6.15C23.41 6.45 23.04 6.6 22.6 6.6H11.74C11.58 6.6 11.5 6.69 11.5 6.87V9.06C11.5 9.24 11.58 9.31 11.74 9.27C12.52 9.17 13.51 9.12 14.71 9.12C18.15 9.12 20.81 9.87 22.69 11.37C24.57 12.87 25.51 14.92 25.51 17.52C25.51 19.54 24.88 21.3 23.62 22.8C22.38 24.3 20.65 25.4 18.43 26.1C17.99 26.24 17.56 26.18 17.14 25.92C16.74 25.68 16.47 25.33 16.33 24.87L16.27 24.75C16.13 24.33 16.17 23.92 16.39 23.52C16.63 23.1 16.97 22.81 17.41 22.65C18.75 22.13 19.8 21.42 20.56 20.52C21.32 19.62 21.7 18.62 21.7 17.52C21.7 15.78 21.04 14.49 19.72 13.65C19.6 13.59 19.5 13.63 19.42 13.77C18.02 17.31 16.12 20.07 13.72 22.05C11.34 24.03 8.86999 25.02 6.30999 25.02Z" fill="#F0F3F2"/>
<path d="M36.46 16.95C38.5 14.55 40.3 12.54 41.86 10.92C42 10.78 42.07 10.63 42.07 10.47V8.28C42.07 8.1 41.98 8.01 41.8 8.01H37.75C37.31 8.01 36.93 7.86 36.61 7.56C36.31 7.24 36.16 6.86 36.16 6.42C36.16 5.98 36.31 5.6 36.61 5.28C36.93 4.96 37.31 4.8 37.75 4.8H41.8C41.98 4.8 42.07 4.72 42.07 4.56V2.1C42.07 1.64 42.23 1.25 42.55 0.930001C42.89 0.59 43.29 0.42 43.75 0.42H43.96C44.42 0.42 44.82 0.59 45.16 0.930001C45.5 1.25 45.67 1.64 45.67 2.1V7.08C45.67 7.22 45.73 7.25 45.85 7.17C47.45 5.85 48.87 4.93 50.11 4.41C51.37 3.87 52.62 3.6 53.86 3.6C56.6 3.6 58.6 4.45 59.86 6.15C61.12 7.83 61.75 10.58 61.75 14.4C61.75 17.72 60.98 20.29 59.44 22.11C57.92 23.91 55.86 24.81 53.26 24.81C52.1 24.81 50.97 24.63 49.87 24.27C49.41 24.13 49.09 23.84 48.91 23.4C48.73 22.94 48.72 22.47 48.88 21.99L48.94 21.81C49.08 21.39 49.35 21.09 49.75 20.91C50.17 20.71 50.61 20.67 51.07 20.79C51.89 21.01 52.62 21.12 53.26 21.12C54.7 21.12 55.82 20.56 56.62 19.44C57.44 18.32 57.85 16.64 57.85 14.4C57.85 11.7 57.53 9.85 56.89 8.85C56.27 7.83 55.19 7.32 53.65 7.32C52.67 7.32 51.58 7.67 50.38 8.37C49.2 9.07 47.69 10.31 45.85 12.09C45.73 12.21 45.67 12.36 45.67 12.54V24.42C45.67 24.88 45.5 25.27 45.16 25.59C44.82 25.93 44.42 26.1 43.96 26.1H43.75C43.29 26.1 42.89 25.93 42.55 25.59C42.23 25.27 42.07 24.88 42.07 24.42V16.32C42.07 16.28 42.04 16.25 41.98 16.23C41.94 16.19 41.91 16.19 41.89 16.23C41.53 16.63 40.62 17.67 39.16 19.35C38.86 19.71 38.47 19.91 37.99 19.95C37.53 19.99 37.13 19.85 36.79 19.53L36.64 19.38C36.3 19.06 36.11 18.67 36.07 18.21C36.03 17.73 36.16 17.31 36.46 16.95Z" fill="#F0F3F2"/>
<path d="M73.66 9.36C73.2 9.36 72.8 9.19 72.46 8.85C72.12 8.51 71.95 8.11 71.95 7.65C71.95 7.19 72.11 6.8 72.43 6.48C72.77 6.14 73.17 5.97 73.63 5.97C73.93 5.97 74.37 5.97 74.95 5.97C75.53 5.95 75.96 5.94 76.24 5.94C76.42 5.94 76.51 5.85 76.51 5.67V2.61C76.51 2.15 76.67 1.75 76.99 1.41C77.33 1.07 77.73 0.900001 78.19 0.900001H78.61C79.07 0.900001 79.46 1.07 79.78 1.41C80.12 1.75 80.29 2.15 80.29 2.61V5.64C80.29 5.8 80.38 5.88 80.56 5.88C84.7 5.8 87.77 5.73 89.77 5.67C89.93 5.67 90.01 5.58 90.01 5.4V1.92C90.01 1.46 90.17 1.06 90.49 0.72C90.83 0.38 91.23 0.210001 91.69 0.210001H91.99C92.45 0.210001 92.85 0.38 93.19 0.72C93.53 1.06 93.7 1.46 93.7 1.92V5.28C93.7 5.44 93.78 5.52 93.94 5.52C94.46 5.5 95.22 5.47 96.22 5.43C96.68 5.41 97.08 5.56 97.42 5.88C97.78 6.2 97.97 6.59 97.99 7.05C98.01 7.51 97.85 7.92 97.51 8.28C97.19 8.62 96.8 8.8 96.34 8.82C96.06 8.84 95.66 8.86 95.14 8.88C94.62 8.9 94.22 8.92 93.94 8.94C93.78 8.94 93.7 9.02 93.7 9.18V13.8C93.7 15.36 93.43 16.45 92.89 17.07C92.37 17.69 91.47 18 90.19 18C89.13 18 87.57 17.78 85.51 17.34C85.05 17.24 84.69 16.98 84.43 16.56C84.19 16.14 84.12 15.7 84.22 15.24L84.28 15.09C84.38 14.63 84.62 14.28 85 14.04C85.4 13.8 85.82 13.72 86.26 13.8C87.66 14.1 88.64 14.25 89.2 14.25C89.58 14.25 89.81 14.18 89.89 14.04C89.97 13.9 90.01 13.47 90.01 12.75V9.33C90.01 9.15 89.92 9.06 89.74 9.06C85.7 9.18 82.63 9.26 80.53 9.3C80.37 9.3 80.29 9.38 80.29 9.54V18.21C80.29 19.41 80.43 20.28 80.71 20.82C81.01 21.34 81.56 21.7 82.36 21.9C83.16 22.1 84.47 22.2 86.29 22.2C88.39 22.2 90.69 22.07 93.19 21.81C93.65 21.77 94.06 21.9 94.42 22.2C94.8 22.48 95.01 22.85 95.05 23.31V23.43C95.09 23.91 94.96 24.33 94.66 24.69C94.38 25.07 94 25.28 93.52 25.32C91.12 25.58 88.71 25.71 86.29 25.71C83.57 25.71 81.53 25.49 80.17 25.05C78.81 24.63 77.86 23.91 77.32 22.89C76.78 21.85 76.51 20.29 76.51 18.21V9.6C76.51 9.42 76.42 9.33 76.24 9.33C75.96 9.33 75.53 9.34 74.95 9.36C74.37 9.36 73.94 9.36 73.66 9.36Z" fill="#F0F3F2"/>
<path d="M121.81 22.47C122.09 21.79 122.23 21.24 122.23 20.82C122.23 20.2 121.99 19.73 121.51 19.41C121.03 19.07 120.17 18.9 118.93 18.9C117.93 18.9 117.16 19.07 116.62 19.41C116.1 19.73 115.84 20.13 115.84 20.61C115.84 22.01 117.54 22.71 120.94 22.71H121.48C121.62 22.71 121.73 22.63 121.81 22.47ZM111.85 15.63C111.45 15.81 111.05 15.83 110.65 15.69C110.27 15.55 109.98 15.29 109.78 14.91C109.58 14.53 109.54 14.13 109.66 13.71C109.78 13.27 110.03 12.94 110.41 12.72L123.07 5.07L123.1 5.04L123.07 5.01H112.78C112.34 5.01 111.95 4.85 111.61 4.53C111.29 4.21 111.13 3.82 111.13 3.36C111.13 2.9 111.29 2.51 111.61 2.19C111.95 1.87 112.34 1.71 112.78 1.71H128.53C128.99 1.71 129.39 1.88 129.73 2.22C130.09 2.54 130.27 2.93 130.27 3.39C130.31 4.49 129.82 5.33 128.8 5.91L120.43 10.56V10.59H120.49C121.81 10.33 123.02 10.2 124.12 10.2C126.98 10.2 129.14 10.79 130.6 11.97C132.08 13.15 132.82 14.83 132.82 17.01C132.82 19.85 131.79 22.05 129.73 23.61C127.67 25.15 124.74 25.92 120.94 25.92C117.96 25.92 115.73 25.46 114.25 24.54C112.77 23.64 112.03 22.33 112.03 20.61C112.03 19.29 112.66 18.18 113.92 17.28C115.18 16.36 116.92 15.9 119.14 15.9C121.42 15.9 123.07 16.28 124.09 17.04C125.11 17.8 125.62 18.92 125.62 20.4C125.62 20.76 125.57 21.21 125.47 21.75C125.45 21.81 125.46 21.86 125.5 21.9C125.56 21.92 125.61 21.92 125.65 21.9C127.63 21.04 128.62 19.53 128.62 17.37C128.62 15.99 128.13 14.95 127.15 14.25C126.19 13.55 124.65 13.2 122.53 13.2C118.95 13.2 115.39 14.01 111.85 15.63Z" fill="#F0F3F2"/>
</svg>
