<svg width="151" height="22" viewBox="0 0 151 22" fill="none" xmlns="http://www.w3.org/2000/svg">
<path d="M1.425 5.51324C1.04167 5.51324 0.708334 5.37157 0.425 5.08824C0.141667 4.8049 0 4.47157 0 4.08824V3.76324C0 3.3799 0.141667 3.04657 0.425 2.76324C0.708334 2.4799 1.04167 2.33824 1.425 2.33824H17.75C18.1333 2.33824 18.4667 2.4799 18.75 2.76324C19.0333 3.04657 19.1667 3.3799 19.15 3.76324C19.0333 9.04657 17.7417 13.0716 15.275 15.8382C12.825 18.6049 9.09167 20.3299 4.075 21.0132C3.675 21.0632 3.30833 20.9716 2.975 20.7382C2.65833 20.5049 2.46667 20.1882 2.4 19.7882L2.35 19.4882C2.28333 19.1216 2.35833 18.7882 2.575 18.4882C2.79167 18.1716 3.09167 17.9882 3.475 17.9382C7.375 17.4049 10.275 16.1799 12.175 14.2632C14.0917 12.3466 15.2167 9.5049 15.55 5.73824C15.55 5.58824 15.4833 5.51324 15.35 5.51324H1.425Z" fill="#677D78"/>
<path d="M28.05 8.51324C27.6833 8.51324 27.3667 8.38824 27.1 8.13824C26.85 7.87157 26.725 7.5549 26.725 7.18824C26.725 6.82157 26.85 6.51324 27.1 6.26324C27.3667 5.99657 27.6833 5.86324 28.05 5.86324H41.7C42.0667 5.86324 42.375 5.99657 42.625 6.26324C42.8917 6.51324 43.025 6.82157 43.025 7.18824C43.025 8.18824 42.875 9.0299 42.575 9.71324C41.775 11.4966 40.5333 13.0299 38.85 14.3132C38.5167 14.5632 38.15 14.6549 37.75 14.5882C37.3667 14.5049 37.05 14.3049 36.8 13.9882L36.75 13.9132C36.5167 13.6132 36.4333 13.2799 36.5 12.9132C36.5667 12.5466 36.75 12.2466 37.05 12.0132C38.35 10.9966 39.2417 9.88824 39.725 8.68824C39.7583 8.57157 39.7167 8.51324 39.6 8.51324H28.05ZM33.1 9.96324H33.275C33.6583 9.96324 33.9917 10.1049 34.275 10.3882C34.5583 10.6549 34.6917 10.9799 34.675 11.3632C34.6083 13.9466 34.2583 15.9382 33.625 17.3382C32.9917 18.7216 31.9417 19.8632 30.475 20.7632C30.125 20.9632 29.75 21.0132 29.35 20.9132C28.9667 20.8299 28.6583 20.6132 28.425 20.2632L28.4 20.2132C28.2 19.8966 28.1417 19.5632 28.225 19.2132C28.325 18.8466 28.5333 18.5549 28.85 18.3382C29.85 17.6882 30.55 16.8549 30.95 15.8382C31.3667 14.8216 31.6083 13.3299 31.675 11.3632C31.6917 10.9799 31.8333 10.6549 32.1 10.3882C32.3833 10.1049 32.7167 9.96324 33.1 9.96324Z" fill="#677D78"/>
<path d="M49.55 11.9382L49.5 11.6632C49.4333 11.2966 49.5083 10.9549 49.725 10.6382C49.9583 10.3216 50.2667 10.1216 50.65 10.0382C53.7 9.47157 56.65 8.52157 59.5 7.18824C62.3667 5.83824 64.8417 4.2299 66.925 2.36324C67.2083 2.09657 67.5417 1.97157 67.925 1.98824C68.3083 2.0049 68.625 2.1549 68.875 2.43824L69.075 2.66324C69.3417 2.96324 69.4583 3.31324 69.425 3.71324C69.4083 4.11324 69.25 4.44657 68.95 4.71324C67.2 6.26324 65.1917 7.66324 62.925 8.91324C62.8083 8.9799 62.75 9.0799 62.75 9.21324C62.75 9.2299 62.75 9.2549 62.75 9.28824C62.7667 9.3049 62.775 9.32157 62.775 9.33824V20.0882C62.775 20.4716 62.6333 20.8049 62.35 21.0882C62.0667 21.3716 61.7333 21.5132 61.35 21.5132H60.6C60.2167 21.5132 59.8833 21.3716 59.6 21.0882C59.3167 20.8049 59.175 20.4716 59.175 20.0882V10.9132C59.175 10.7966 59.1167 10.7549 59 10.7882C56.5167 11.8216 53.9083 12.5966 51.175 13.1132C50.7917 13.1799 50.4417 13.0966 50.125 12.8632C49.8083 12.6299 49.6167 12.3216 49.55 11.9382Z" fill="#677D78"/>
<path d="M87.1 21.1632C86.7167 21.1799 86.3833 21.0466 86.1 20.7632C85.8333 20.4799 85.7 20.1466 85.7 19.7632V2.83824C85.7 2.4549 85.8417 2.1299 86.125 1.86323C86.4083 1.5799 86.7417 1.43824 87.125 1.43824H87.75C88.1333 1.43824 88.4667 1.5799 88.75 1.86323C89.0333 2.1299 89.175 2.4549 89.175 2.83824V17.4882C89.175 17.6216 89.2417 17.6716 89.375 17.6382C90.7583 17.2549 91.8417 16.5216 92.625 15.4382C93.4083 14.3382 93.9583 12.7966 94.275 10.8132C94.3417 10.4299 94.5333 10.1216 94.85 9.88824C95.1667 9.6549 95.5083 9.56324 95.875 9.61324L96.225 9.66324C96.6083 9.71324 96.925 9.89657 97.175 10.2132C97.425 10.5132 97.5167 10.8549 97.45 11.2382C96.5167 17.5716 93.0667 20.8799 87.1 21.1632ZM75.65 20.2382L75.35 19.7882C75.15 19.4549 75.0917 19.1132 75.175 18.7632C75.275 18.3966 75.4917 18.1132 75.825 17.9132C77.175 17.0799 78.05 15.9382 78.45 14.4882C78.85 13.0382 79.05 10.3799 79.05 6.51324V2.83824C79.05 2.4549 79.1833 2.1299 79.45 1.86323C79.7333 1.5799 80.0667 1.43824 80.45 1.43824H81.05C81.4333 1.43824 81.7583 1.5799 82.025 1.86323C82.3083 2.1299 82.45 2.4549 82.45 2.83824V6.51324C82.45 9.5799 82.3 12.0132 82 13.8132C81.7 15.5966 81.2167 17.0132 80.55 18.0632C79.8833 19.1132 78.925 20.0049 77.675 20.7382C77.325 20.9382 76.9583 20.9882 76.575 20.8882C76.1917 20.8049 75.8833 20.5882 75.65 20.2382Z" fill="#677D78"/>
<path d="M116.725 16.0132V15.9132C116.725 15.7632 116.658 15.6632 116.525 15.6132C115.642 15.1799 114.817 14.9632 114.05 14.9632C113.133 14.9632 112.442 15.1382 111.975 15.4882C111.525 15.8382 111.3 16.3216 111.3 16.9382C111.3 17.5882 111.542 18.0966 112.025 18.4632C112.508 18.8299 113.183 19.0132 114.05 19.0132C115.067 19.0132 115.767 18.8049 116.15 18.3882C116.533 17.9716 116.725 17.1799 116.725 16.0132ZM123.15 3.66324C123.55 3.69657 123.867 3.87157 124.1 4.18824C124.35 4.5049 124.45 4.86324 124.4 5.26324C124.35 5.64657 124.167 5.9549 123.85 6.18824C123.533 6.42157 123.183 6.51324 122.8 6.46324C121.867 6.34657 120.967 6.2799 120.1 6.26324C119.967 6.26324 119.9 6.33824 119.9 6.48824V14.0632C119.9 14.1966 119.95 14.3049 120.05 14.3882C121.183 15.0882 122.383 15.9882 123.65 17.0882C123.95 17.3382 124.108 17.6632 124.125 18.0632C124.142 18.4632 124.017 18.8049 123.75 19.0882L123.675 19.1632C123.408 19.4466 123.083 19.6049 122.7 19.6382C122.317 19.6716 121.975 19.5632 121.675 19.3132C121.425 19.0966 121.083 18.8216 120.65 18.4882C120.217 18.1382 119.967 17.9382 119.9 17.8882C119.8 17.8216 119.733 17.8382 119.7 17.9382C119.433 19.2216 118.833 20.1632 117.9 20.7632C116.983 21.3799 115.7 21.6882 114.05 21.6882C112.2 21.6882 110.75 21.2632 109.7 20.4132C108.667 19.5632 108.15 18.4049 108.15 16.9382C108.15 15.5049 108.658 14.3716 109.675 13.5382C110.708 12.6882 112.167 12.2632 114.05 12.2632C114.783 12.2632 115.617 12.4049 116.55 12.6882C116.667 12.7216 116.725 12.6716 116.725 12.5382V4.76324C116.725 4.3799 116.858 4.04657 117.125 3.76324C117.408 3.4799 117.742 3.34657 118.125 3.36323C120.258 3.4299 121.933 3.5299 123.15 3.66324ZM103.375 18.1882C103.008 18.0716 102.75 17.8382 102.6 17.4882C102.45 17.1382 102.442 16.7799 102.575 16.4132C103.842 13.1966 104.992 9.8549 106.025 6.38824C106.058 6.2549 106.008 6.18824 105.875 6.18824H104.025C103.642 6.18824 103.308 6.04657 103.025 5.76324C102.758 5.4799 102.625 5.14657 102.625 4.76324C102.625 4.3799 102.758 4.04657 103.025 3.76324C103.308 3.4799 103.642 3.33824 104.025 3.33824H106.675C106.825 3.33824 106.917 3.27157 106.95 3.13824C107.017 2.92157 107.1 2.59657 107.2 2.16324C107.3 1.7299 107.383 1.4049 107.45 1.18824C107.55 0.804903 107.767 0.504903 108.1 0.288236C108.433 0.0549026 108.8 -0.0367644 109.2 0.013235H109.375C109.758 0.0632353 110.05 0.246569 110.25 0.563235C110.467 0.879902 110.533 1.22157 110.45 1.58824C110.283 2.28824 110.158 2.8049 110.075 3.13824C110.042 3.27157 110.1 3.33824 110.25 3.33824H112.775C113.158 3.33824 113.492 3.4799 113.775 3.76324C114.058 4.04657 114.2 4.3799 114.2 4.76324C114.2 5.14657 114.058 5.4799 113.775 5.76324C113.492 6.04657 113.158 6.18824 112.775 6.18824H109.475C109.325 6.18824 109.233 6.26324 109.2 6.41324C108.167 10.0799 106.925 13.7382 105.475 17.3882C105.325 17.7549 105.067 18.0299 104.7 18.2132C104.35 18.3799 103.983 18.3966 103.6 18.2632L103.375 18.1882Z" fill="#677D78"/>
<path d="M140.325 21.6882C137.492 21.6882 135.533 21.0049 134.45 19.6382C133.367 18.2549 132.825 15.7132 132.825 12.0132C132.825 8.99657 132.917 5.74657 133.1 2.26324C133.133 1.86324 133.283 1.5299 133.55 1.26324C133.833 0.996569 134.175 0.871569 134.575 0.888236H135.175C135.558 0.904902 135.875 1.0549 136.125 1.33824C136.392 1.62157 136.517 1.9549 136.5 2.33824C136.333 5.92157 136.25 9.14657 136.25 12.0132C136.25 13.8132 136.392 15.1882 136.675 16.1382C136.975 17.0716 137.4 17.7049 137.95 18.0382C138.5 18.3549 139.292 18.5132 140.325 18.5132C143.208 18.5132 145.558 16.5466 147.375 12.6132C147.542 12.2632 147.8 12.0132 148.15 11.8632C148.517 11.6966 148.883 11.6799 149.25 11.8132L149.575 11.9632C149.942 12.0966 150.208 12.3466 150.375 12.7132C150.542 13.0799 150.542 13.4382 150.375 13.7882C148.092 19.0549 144.742 21.6882 140.325 21.6882Z" fill="#677D78"/>
</svg>
