<svg width="131" height="26" viewBox="0 0 131 26" fill="none" xmlns="http://www.w3.org/2000/svg">
<path d="M0.104118 11.52L0.0441176 11.34C-0.0558823 10.88 0.0141177 10.45 0.254118 10.05C0.514118 9.65 0.874118 9.4 1.33412 9.3C6.15412 8.22 10.1641 7.68 13.3641 7.68C16.4841 7.68 18.7941 8.28 20.2941 9.48C21.8141 10.66 22.5741 12.23 22.5741 14.19C22.5741 17.05 21.2941 19.41 18.7341 21.27C16.1941 23.11 12.4341 24.3 7.45412 24.84C6.97412 24.9 6.53412 24.78 6.13412 24.48C5.75412 24.2 5.51412 23.82 5.41412 23.34L5.38412 23.1C5.30412 22.66 5.38412 22.26 5.62412 21.9C5.88412 21.52 6.24412 21.3 6.70412 21.24C10.7441 20.7 13.7341 19.84 15.6741 18.66C17.6141 17.46 18.5841 16.04 18.5841 14.4C18.5841 12.32 16.7841 11.28 13.1841 11.28C10.6441 11.28 6.97412 11.79 2.17412 12.81C1.71412 12.91 1.27412 12.84 0.854118 12.6C0.454118 12.34 0.204118 11.98 0.104118 11.52ZM5.98412 0.3C9.40412 0.72 12.9341 0.98 16.5741 1.08C17.0341 1.1 17.4341 1.28 17.7741 1.62C18.1141 1.94 18.2841 2.33 18.2841 2.79V3C18.2841 3.46 18.1141 3.86 17.7741 4.2C17.4541 4.54 17.0641 4.7 16.6041 4.68C13.0641 4.58 9.37412 4.29 5.53412 3.81C5.07412 3.75 4.69412 3.53 4.39412 3.15C4.11412 2.77 4.00412 2.35 4.06412 1.89L4.09412 1.77C4.15412 1.31 4.36412 0.94 4.72412 0.66C5.10412 0.360001 5.52412 0.24 5.98412 0.3Z" fill="#F0F3F2"/>
<path d="M44.9241 9C44.4641 9 44.0641 8.83 43.7241 8.49C43.3841 8.15 43.2141 7.75 43.2141 7.29C43.2141 6.83 43.3841 6.43 43.7241 6.09C44.0641 5.75 44.4641 5.58 44.9241 5.58H51.9741C52.1341 5.58 52.2141 5.5 52.2141 5.34V1.68C52.2141 1.22 52.3841 0.83 52.7241 0.510001C53.0641 0.17 53.4641 0 53.9241 0H54.3141C54.7741 0 55.1741 0.17 55.5141 0.510001C55.8541 0.83 56.0241 1.22 56.0241 1.68V5.34C56.0241 5.5 56.1141 5.58 56.2941 5.58H58.7241C59.1841 5.58 59.5841 5.75 59.9241 6.09C60.2641 6.43 60.4341 6.83 60.4341 7.29C60.4341 7.75 60.2641 8.15 59.9241 8.49C59.5841 8.83 59.1841 9 58.7241 9H56.2941C56.1141 9 56.0241 9.08 56.0241 9.24V12.6C56.0241 16.4 55.5241 19.14 54.5241 20.82C53.5241 22.48 51.6041 23.75 48.7641 24.63C48.3041 24.77 47.8641 24.73 47.4441 24.51C47.0241 24.29 46.7341 23.95 46.5741 23.49L46.4841 23.28C46.3241 22.86 46.3441 22.45 46.5441 22.05C46.7641 21.65 47.0941 21.37 47.5341 21.21C48.5941 20.87 49.4041 20.53 49.9641 20.19C50.5441 19.83 51.0141 19.32 51.3741 18.66C51.7341 17.98 51.9641 17.2 52.0641 16.32C52.1641 15.44 52.2141 14.2 52.2141 12.6V9.24C52.2141 9.08 52.1341 9 51.9741 9H44.9241ZM38.2041 24.93C37.7241 24.99 37.2841 24.88 36.8841 24.6C36.4841 24.34 36.2341 23.97 36.1341 23.49C35.3941 20.11 35.0241 16.51 35.0241 12.69C35.0241 8.87 35.3941 5.27 36.1341 1.89C36.2341 1.41 36.4841 1.04 36.8841 0.780001C37.2841 0.500001 37.7241 0.390001 38.2041 0.450001L38.7741 0.510001C39.2141 0.55 39.5641 0.76 39.8241 1.14C40.0841 1.52 40.1641 1.93 40.0641 2.37C39.3641 5.53 39.0141 8.97 39.0141 12.69C39.0141 16.41 39.3641 19.85 40.0641 23.01C40.1641 23.45 40.0841 23.86 39.8241 24.24C39.5641 24.62 39.2141 24.83 38.7741 24.87L38.2041 24.93Z" fill="#F0F3F2"/>
<path d="M83.4141 24.99C79.7141 24.99 76.9241 24.37 75.0441 23.13C73.1641 21.89 72.2241 20.08 72.2241 17.7C72.2241 15.1 73.7741 12.77 76.8741 10.71C76.9941 10.61 77.0441 10.49 77.0241 10.35V10.26C76.2641 7.04 75.6941 4.36 75.3141 2.22C75.2341 1.76 75.3241 1.34 75.5841 0.96C75.8641 0.560001 76.2341 0.320001 76.6941 0.24L77.4441 0.12C77.9041 0.0400001 78.3241 0.14 78.7041 0.42C79.0841 0.7 79.3241 1.07 79.4241 1.53C79.8641 3.89 80.3441 6.15 80.8641 8.31C80.9041 8.51 81.0041 8.57 81.1641 8.49C83.8641 7.35 87.1241 6.31 90.9441 5.37C91.4041 5.27 91.8341 5.35 92.2341 5.61C92.6341 5.85 92.8741 6.2 92.9541 6.66L93.0141 6.93C93.1141 7.39 93.0341 7.82 92.7741 8.22C92.5141 8.62 92.1541 8.87 91.6941 8.97C86.6341 10.21 82.8241 11.57 80.2641 13.05C77.7041 14.53 76.4241 16.01 76.4241 17.49C76.4241 20.09 78.7541 21.39 83.4141 21.39C86.0741 21.39 88.7441 21.21 91.4241 20.85C91.8841 20.79 92.2941 20.9 92.6541 21.18C93.0341 21.46 93.2541 21.83 93.3141 22.29L93.3441 22.5C93.4041 22.96 93.2841 23.38 92.9841 23.76C92.7041 24.16 92.3341 24.39 91.8741 24.45C89.3341 24.81 86.5141 24.99 83.4141 24.99Z" fill="#F0F3F2"/>
<path d="M119.834 21.75C120.114 21.07 120.254 20.52 120.254 20.1C120.254 19.48 120.014 19.01 119.534 18.69C119.054 18.35 118.194 18.18 116.954 18.18C115.954 18.18 115.184 18.35 114.644 18.69C114.124 19.01 113.864 19.41 113.864 19.89C113.864 21.29 115.564 21.99 118.964 21.99H119.504C119.644 21.99 119.754 21.91 119.834 21.75ZM109.874 14.91C109.474 15.09 109.074 15.11 108.674 14.97C108.294 14.83 108.004 14.57 107.804 14.19C107.604 13.81 107.564 13.41 107.684 12.99C107.804 12.55 108.054 12.22 108.434 12L121.094 4.35L121.124 4.32L121.094 4.29H110.804C110.364 4.29 109.974 4.13 109.634 3.81C109.314 3.49 109.154 3.1 109.154 2.64C109.154 2.18 109.314 1.79 109.634 1.47C109.974 1.15 110.364 0.99 110.804 0.99H126.554C127.014 0.99 127.414 1.16 127.754 1.5C128.114 1.82 128.294 2.21 128.294 2.67C128.334 3.77 127.844 4.61 126.824 5.19L118.454 9.84V9.87H118.514C119.834 9.61 121.044 9.48 122.144 9.48C125.004 9.48 127.164 10.07 128.624 11.25C130.104 12.43 130.844 14.11 130.844 16.29C130.844 19.13 129.814 21.33 127.754 22.89C125.694 24.43 122.764 25.2 118.964 25.2C115.984 25.2 113.754 24.74 112.274 23.82C110.794 22.92 110.054 21.61 110.054 19.89C110.054 18.57 110.684 17.46 111.944 16.56C113.204 15.64 114.944 15.18 117.164 15.18C119.444 15.18 121.094 15.56 122.114 16.32C123.134 17.08 123.644 18.2 123.644 19.68C123.644 20.04 123.594 20.49 123.494 21.03C123.474 21.09 123.484 21.14 123.524 21.18C123.584 21.2 123.634 21.2 123.674 21.18C125.654 20.32 126.644 18.81 126.644 16.65C126.644 15.27 126.154 14.23 125.174 13.53C124.214 12.83 122.674 12.48 120.554 12.48C116.974 12.48 113.414 13.29 109.874 14.91Z" fill="#F0F3F2"/>
</svg>
