<svg width="325" height="75" viewBox="0 0 325 75" fill="none" xmlns="http://www.w3.org/2000/svg">
<rect x="3.5" y="3.5" width="318" height="68" rx="34" fill="#F0F3F2" stroke="#384944" stroke-width="7"/>
<path d="M167.284 22C167.284 22 155.263 34.0208 152.082 37.2028C148.9 40.3848 149.253 44.981 152.082 47.8094M152.082 47.8094C154.91 50.6378 159.86 50.6378 162.688 47.8094C165.517 44.981 177.891 32.6066 177.891 32.6066M152.082 47.8094L144.303 55.5876" stroke="#384944" stroke-width="5" stroke-linecap="round" stroke-linejoin="round"/>
<path d="M130.355 52.2843C138.166 44.4738 138.166 31.8105 130.355 24M123.284 45.2132C127.19 41.308 127.19 34.9763 123.284 31.0711" stroke="#384944" stroke-width="5" stroke-linecap="round"/>
<path d="M195.929 52.2843C188.118 44.4738 188.118 31.8105 195.929 24M203 45.2132C199.095 41.308 199.095 34.9763 203 31.0711" stroke="#384944" stroke-width="5" stroke-linecap="round"/>
</svg>
