<svg width="25" height="30" viewBox="0 0 25 30" fill="none" xmlns="http://www.w3.org/2000/svg">
<path d="M2 2.5V27.5C2 27.7761 2.22386 28 2.5 28H22.5C22.7761 28 23 27.7761 23 27.5V10.0355C23 9.90293 22.9473 9.77575 22.8536 9.68198L15.318 2.14645C15.2243 2.05268 15.0971 2 14.9645 2H2.5C2.22386 2 2 2.22386 2 2.5Z" fill="#F9FBFA" stroke="#677D78" stroke-width="4" stroke-linejoin="bevel"/>
<path d="M15 2V10H23" stroke="#677D78" stroke-width="4" stroke-linejoin="round"/>
<path d="M6 22C6 21.7239 6.22386 21.5 6.5 21.5H18.5C18.7761 21.5 19 21.7239 19 22V23.5C19 23.7761 18.7761 24 18.5 24H6.5C6.22386 24 6 23.7761 6 23.5V22Z" fill="#677D78"/>
<path d="M14.25 8.5C14.25 7.5335 13.4665 6.75 12.5 6.75C11.5335 6.75 10.75 7.5335 10.75 8.5V15.2751L9.73744 14.2626C9.05402 13.5791 7.94598 13.5791 7.26256 14.2626C6.57915 14.946 6.57915 16.054 7.26256 16.7374L11.2626 20.7374C11.946 21.4209 13.054 21.4209 13.7374 20.7374L17.7374 16.7374C18.4209 16.054 18.4209 14.946 17.7374 14.2626C17.054 13.5791 15.946 13.5791 15.2626 14.2626L14.25 15.2751V8.5Z" fill="#677D78" stroke="#F9FBFA" stroke-linecap="round" stroke-linejoin="round"/>
</svg>
