<svg width="299" height="100" viewBox="0 0 299 100" fill="none" xmlns="http://www.w3.org/2000/svg">
<path d="M0.875 1.50002H8.375V47.475H36.8V54H0.875V1.50002Z" fill="#F0F3F2"/>
<path d="M54.4062 1.50002H61.9062V54H54.4062V1.50002Z" fill="#F0F3F2"/>
<path d="M101.924 54.6C97.974 54.6 94.149 54 90.449 52.8C86.799 51.55 83.924 49.95 81.824 48L84.599 42.15C86.599 43.95 89.149 45.425 92.249 46.575C95.399 47.675 98.624 48.225 101.924 48.225C106.274 48.225 109.524 47.5 111.674 46.05C113.824 44.55 114.899 42.575 114.899 40.125C114.899 38.325 114.299 36.875 113.099 35.775C111.949 34.625 110.499 33.75 108.749 33.15C107.049 32.55 104.624 31.875 101.474 31.125C97.524 30.175 94.324 29.225 91.874 28.275C89.474 27.325 87.399 25.875 85.649 23.925C83.949 21.925 83.099 19.25 83.099 15.9C83.099 13.1 83.824 10.575 85.274 8.32502C86.774 6.07502 89.024 4.27502 92.024 2.92502C95.024 1.57502 98.749 0.900024 103.199 0.900024C106.299 0.900024 109.349 1.30002 112.349 2.10002C115.349 2.90002 117.924 4.05002 120.074 5.55002L117.599 11.55C115.399 10.15 113.049 9.10002 110.549 8.40002C108.049 7.65002 105.599 7.27502 103.199 7.27502C98.949 7.27502 95.749 8.05002 93.599 9.60002C91.499 11.15 90.449 13.15 90.449 15.6C90.449 17.4 91.049 18.875 92.249 20.025C93.449 21.125 94.924 22 96.674 22.65C98.474 23.25 100.899 23.9 103.949 24.6C107.899 25.55 111.074 26.5 113.474 27.45C115.874 28.4 117.924 29.85 119.624 31.8C121.374 33.75 122.249 36.375 122.249 39.675C122.249 42.425 121.499 44.95 119.999 47.25C118.499 49.5 116.224 51.3 113.174 52.65C110.124 53.95 106.374 54.6 101.924 54.6Z" fill="#F0F3F2"/>
<path d="M151.899 8.02502H133.899V1.50002H177.324V8.02502H159.324V54H151.899V8.02502Z" fill="#F0F3F2"/>
<path d="M232.592 47.475V54H194.492V1.50002H231.542V8.02502H201.992V24.15H228.317V30.525H201.992V47.475H232.592Z" fill="#F0F3F2"/>
<path d="M298.886 1.50002V54H292.736L261.236 14.85V54H253.736V1.50002H259.886L291.386 40.65V1.50002H298.886Z" fill="#F0F3F2"/>
<path d="M89.08 86.03L89.02 85.85C88.92 85.39 88.99 84.96 89.23 84.56C89.49 84.16 89.85 83.91 90.31 83.81C95.13 82.73 99.14 82.19 102.34 82.19C105.46 82.19 107.77 82.79 109.27 83.99C110.79 85.17 111.55 86.74 111.55 88.7C111.55 91.56 110.27 93.92 107.71 95.78C105.17 97.62 101.41 98.81 96.43 99.35C95.95 99.41 95.51 99.29 95.11 98.99C94.73 98.71 94.49 98.33 94.39 97.85L94.36 97.61C94.28 97.17 94.36 96.77 94.6 96.41C94.86 96.03 95.22 95.81 95.68 95.75C99.72 95.21 102.71 94.35 104.65 93.17C106.59 91.97 107.56 90.55 107.56 88.91C107.56 86.83 105.76 85.79 102.16 85.79C99.62 85.79 95.95 86.3 91.15 87.32C90.69 87.42 90.25 87.35 89.83 87.11C89.43 86.85 89.18 86.49 89.08 86.03ZM94.96 74.81C98.38 75.23 101.91 75.49 105.55 75.59C106.01 75.61 106.41 75.79 106.75 76.13C107.09 76.45 107.26 76.84 107.26 77.3V77.51C107.26 77.97 107.09 78.37 106.75 78.71C106.43 79.05 106.04 79.21 105.58 79.19C102.04 79.09 98.35 78.8 94.51 78.32C94.05 78.26 93.67 78.04 93.37 77.66C93.09 77.28 92.98 76.86 93.04 76.4L93.07 76.28C93.13 75.82 93.34 75.45 93.7 75.17C94.08 74.87 94.5 74.75 94.96 74.81Z" fill="#F0F3F2"/>
<path d="M130.9 83.51C130.44 83.51 130.04 83.34 129.7 83C129.36 82.66 129.19 82.26 129.19 81.8C129.19 81.34 129.36 80.94 129.7 80.6C130.04 80.26 130.44 80.09 130.9 80.09H137.95C138.11 80.09 138.19 80.01 138.19 79.85V76.19C138.19 75.73 138.36 75.34 138.7 75.02C139.04 74.68 139.44 74.51 139.9 74.51H140.29C140.75 74.51 141.15 74.68 141.49 75.02C141.83 75.34 142 75.73 142 76.19V79.85C142 80.01 142.09 80.09 142.27 80.09H144.7C145.16 80.09 145.56 80.26 145.9 80.6C146.24 80.94 146.41 81.34 146.41 81.8C146.41 82.26 146.24 82.66 145.9 83C145.56 83.34 145.16 83.51 144.7 83.51H142.27C142.09 83.51 142 83.59 142 83.75V87.11C142 90.91 141.5 93.65 140.5 95.33C139.5 96.99 137.58 98.26 134.74 99.14C134.28 99.28 133.84 99.24 133.42 99.02C133 98.8 132.71 98.46 132.55 98L132.46 97.79C132.3 97.37 132.32 96.96 132.52 96.56C132.74 96.16 133.07 95.88 133.51 95.72C134.57 95.38 135.38 95.04 135.94 94.7C136.52 94.34 136.99 93.83 137.35 93.17C137.71 92.49 137.94 91.71 138.04 90.83C138.14 89.95 138.19 88.71 138.19 87.11V83.75C138.19 83.59 138.11 83.51 137.95 83.51H130.9ZM124.18 99.44C123.7 99.5 123.26 99.39 122.86 99.11C122.46 98.85 122.21 98.48 122.11 98C121.37 94.62 121 91.02 121 87.2C121 83.38 121.37 79.78 122.11 76.4C122.21 75.92 122.46 75.55 122.86 75.29C123.26 75.01 123.7 74.9 124.18 74.96L124.75 75.02C125.19 75.06 125.54 75.27 125.8 75.65C126.06 76.03 126.14 76.44 126.04 76.88C125.34 80.04 124.99 83.48 124.99 87.2C124.99 90.92 125.34 94.36 126.04 97.52C126.14 97.96 126.06 98.37 125.8 98.75C125.54 99.13 125.19 99.34 124.75 99.38L124.18 99.44Z" fill="#F0F3F2"/>
<path d="M166.39 99.5C162.69 99.5 159.9 98.88 158.02 97.64C156.14 96.4 155.2 94.59 155.2 92.21C155.2 89.61 156.75 87.28 159.85 85.22C159.97 85.12 160.02 85 160 84.86V84.77C159.24 81.55 158.67 78.87 158.29 76.73C158.21 76.27 158.3 75.85 158.56 75.47C158.84 75.07 159.21 74.83 159.67 74.75L160.42 74.63C160.88 74.55 161.3 74.65 161.68 74.93C162.06 75.21 162.3 75.58 162.4 76.04C162.84 78.4 163.32 80.66 163.84 82.82C163.88 83.02 163.98 83.08 164.14 83C166.84 81.86 170.1 80.82 173.92 79.88C174.38 79.78 174.81 79.86 175.21 80.12C175.61 80.36 175.85 80.71 175.93 81.17L175.99 81.44C176.09 81.9 176.01 82.33 175.75 82.73C175.49 83.13 175.13 83.38 174.67 83.48C169.61 84.72 165.8 86.08 163.24 87.56C160.68 89.04 159.4 90.52 159.4 92C159.4 94.6 161.73 95.9 166.39 95.9C169.05 95.9 171.72 95.72 174.4 95.36C174.86 95.3 175.27 95.41 175.63 95.69C176.01 95.97 176.23 96.34 176.29 96.8L176.32 97.01C176.38 97.47 176.26 97.89 175.96 98.27C175.68 98.67 175.31 98.9 174.85 98.96C172.31 99.32 169.49 99.5 166.39 99.5Z" fill="#F0F3F2"/>
<path d="M199.81 96.26C200.09 95.58 200.23 95.03 200.23 94.61C200.23 93.99 199.99 93.52 199.51 93.2C199.03 92.86 198.17 92.69 196.93 92.69C195.93 92.69 195.16 92.86 194.62 93.2C194.1 93.52 193.84 93.92 193.84 94.4C193.84 95.8 195.54 96.5 198.94 96.5H199.48C199.62 96.5 199.73 96.42 199.81 96.26ZM189.85 89.42C189.45 89.6 189.05 89.62 188.65 89.48C188.27 89.34 187.98 89.08 187.78 88.7C187.58 88.32 187.54 87.92 187.66 87.5C187.78 87.06 188.03 86.73 188.41 86.51L201.07 78.86L201.1 78.83L201.07 78.8H190.78C190.34 78.8 189.95 78.64 189.61 78.32C189.29 78 189.13 77.61 189.13 77.15C189.13 76.69 189.29 76.3 189.61 75.98C189.95 75.66 190.34 75.5 190.78 75.5H206.53C206.99 75.5 207.39 75.67 207.73 76.01C208.09 76.33 208.27 76.72 208.27 77.18C208.31 78.28 207.82 79.12 206.8 79.7L198.43 84.35V84.38H198.49C199.81 84.12 201.02 83.99 202.12 83.99C204.98 83.99 207.14 84.58 208.6 85.76C210.08 86.94 210.82 88.62 210.82 90.8C210.82 93.64 209.79 95.84 207.73 97.4C205.67 98.94 202.74 99.71 198.94 99.71C195.96 99.71 193.73 99.25 192.25 98.33C190.77 97.43 190.03 96.12 190.03 94.4C190.03 93.08 190.66 91.97 191.92 91.07C193.18 90.15 194.92 89.69 197.14 89.69C199.42 89.69 201.07 90.07 202.09 90.83C203.11 91.59 203.62 92.71 203.62 94.19C203.62 94.55 203.57 95 203.47 95.54C203.45 95.6 203.46 95.65 203.5 95.69C203.56 95.71 203.61 95.71 203.65 95.69C205.63 94.83 206.62 93.32 206.62 91.16C206.62 89.78 206.13 88.74 205.15 88.04C204.19 87.34 202.65 86.99 200.53 86.99C196.95 86.99 193.39 87.8 189.85 89.42Z" fill="#F0F3F2"/>
</svg>
