<svg width="261" height="248" viewBox="0 0 261 248" fill="none" xmlns="http://www.w3.org/2000/svg">
<path d="M223 40C223 17.9086 205.091 0 183 0V0C160.908 0 143 17.9086 143 40V131C143 153.091 160.908 171 183 171V171C205.091 171 223 153.091 223 131V40Z" fill="#F0F3F2" fill-opacity="0.15"/>
<path d="M113 130C113 168.66 144.34 200 183 200M183 200C221.66 200 253 168.66 253 130M183 200V240M183 240H231.461M183 240H134.538" stroke="#F0F3F2" stroke-opacity="0.15" stroke-width="15" stroke-linecap="round"/>
<path d="M8 71.8594C34.5097 98.369 34.5097 141.35 8 167.859M39.9999 40C84.1827 84.1828 84.1827 155.817 39.9999 200" stroke="#F0F3F2" stroke-opacity="0.15" stroke-width="15" stroke-linecap="round"/>
</svg>
