<svg width="133" height="27" viewBox="0 0 133 27" fill="none" xmlns="http://www.w3.org/2000/svg">
<path d="M7.11 14.1C4.91 15.32 3.81 16.89 3.81 18.81C3.81 19.71 4.02 20.4 4.44 20.88C4.86 21.36 5.45 21.6 6.21 21.6C6.57 21.6 6.85 21.58 7.05 21.54C7.23 21.5 7.32 21.39 7.32 21.21V14.25C7.32 14.19 7.29 14.15 7.23 14.13C7.19 14.09 7.15 14.08 7.11 14.1ZM14.22 12.51C13.22 12.51 12.24 12.59 11.28 12.75C11.1 12.79 11.01 12.89 11.01 13.05V19.11C11.01 19.15 11.04 19.19 11.1 19.23C11.16 19.25 11.2 19.24 11.22 19.2C12.94 17.6 14.36 15.48 15.48 12.84C15.5 12.78 15.49 12.72 15.45 12.66C15.43 12.58 15.39 12.54 15.33 12.54C15.09 12.52 14.72 12.51 14.22 12.51ZM5.82 25.02C4.06 25.02 2.65 24.5 1.59 23.46C0.53 22.4 0 20.98 0 19.2C0 17.2 0.62 15.42 1.86 13.86C3.1 12.28 4.85 11.08 7.11 10.26C7.25 10.2 7.32 10.09 7.32 9.93V6.87C7.32 6.69 7.23 6.6 7.05 6.6H2.91C2.47 6.6 2.09 6.45 1.77 6.15C1.47 5.83 1.32 5.45 1.32 5.01C1.32 4.57 1.47 4.2 1.77 3.9C2.09 3.58 2.47 3.42 2.91 3.42H7.05C7.23 3.42 7.32 3.33 7.32 3.15V1.71C7.32 1.25 7.48 0.85 7.8 0.510001C8.14 0.17 8.54 0 9 0H9.3C9.76 0 10.16 0.17 10.5 0.510001C10.84 0.85 11.01 1.25 11.01 1.71V3.15C11.01 3.33 11.09 3.42 11.25 3.42H22.11C22.55 3.42 22.92 3.58 23.22 3.9C23.54 4.2 23.7 4.57 23.7 5.01C23.7 5.45 23.54 5.83 23.22 6.15C22.92 6.45 22.55 6.6 22.11 6.6H11.25C11.09 6.6 11.01 6.69 11.01 6.87V9.06C11.01 9.24 11.09 9.31 11.25 9.27C12.03 9.17 13.02 9.12 14.22 9.12C17.66 9.12 20.32 9.87 22.2 11.37C24.08 12.87 25.02 14.92 25.02 17.52C25.02 19.54 24.39 21.3 23.13 22.8C21.89 24.3 20.16 25.4 17.94 26.1C17.5 26.24 17.07 26.18 16.65 25.92C16.25 25.68 15.98 25.33 15.84 24.87L15.78 24.75C15.64 24.33 15.68 23.92 15.9 23.52C16.14 23.1 16.48 22.81 16.92 22.65C18.26 22.13 19.31 21.42 20.07 20.52C20.83 19.62 21.21 18.62 21.21 17.52C21.21 15.78 20.55 14.49 19.23 13.65C19.11 13.59 19.01 13.63 18.93 13.77C17.53 17.31 15.63 20.07 13.23 22.05C10.85 24.03 8.38 25.02 5.82 25.02Z" fill="#829993"/>
<path d="M35.97 16.95C38.01 14.55 39.81 12.54 41.37 10.92C41.51 10.78 41.58 10.63 41.58 10.47V8.28C41.58 8.1 41.49 8.01 41.31 8.01H37.26C36.82 8.01 36.44 7.86 36.12 7.56C35.82 7.24 35.67 6.86 35.67 6.42C35.67 5.98 35.82 5.6 36.12 5.28C36.44 4.96 36.82 4.8 37.26 4.8H41.31C41.49 4.8 41.58 4.72 41.58 4.56V2.1C41.58 1.64 41.74 1.25 42.06 0.930001C42.4 0.59 42.8 0.42 43.26 0.42H43.47C43.93 0.42 44.33 0.59 44.67 0.930001C45.01 1.25 45.18 1.64 45.18 2.1V7.08C45.18 7.22 45.24 7.25 45.36 7.17C46.96 5.85 48.38 4.93 49.62 4.41C50.88 3.87 52.13 3.6 53.37 3.6C56.11 3.6 58.11 4.45 59.37 6.15C60.63 7.83 61.26 10.58 61.26 14.4C61.26 17.72 60.49 20.29 58.95 22.11C57.43 23.91 55.37 24.81 52.77 24.81C51.61 24.81 50.48 24.63 49.38 24.27C48.92 24.13 48.6 23.84 48.42 23.4C48.24 22.94 48.23 22.47 48.39 21.99L48.45 21.81C48.59 21.39 48.86 21.09 49.26 20.91C49.68 20.71 50.12 20.67 50.58 20.79C51.4 21.01 52.13 21.12 52.77 21.12C54.21 21.12 55.33 20.56 56.13 19.44C56.95 18.32 57.36 16.64 57.36 14.4C57.36 11.7 57.04 9.85 56.4 8.85C55.78 7.83 54.7 7.32 53.16 7.32C52.18 7.32 51.09 7.67 49.89 8.37C48.71 9.07 47.2 10.31 45.36 12.09C45.24 12.21 45.18 12.36 45.18 12.54V24.42C45.18 24.88 45.01 25.27 44.67 25.59C44.33 25.93 43.93 26.1 43.47 26.1H43.26C42.8 26.1 42.4 25.93 42.06 25.59C41.74 25.27 41.58 24.88 41.58 24.42V16.32C41.58 16.28 41.55 16.25 41.49 16.23C41.45 16.19 41.42 16.19 41.4 16.23C41.04 16.63 40.13 17.67 38.67 19.35C38.37 19.71 37.98 19.91 37.5 19.95C37.04 19.99 36.64 19.85 36.3 19.53L36.15 19.38C35.81 19.06 35.62 18.67 35.58 18.21C35.54 17.73 35.67 17.31 35.97 16.95Z" fill="#829993"/>
<path d="M73.17 9.36C72.71 9.36 72.31 9.19 71.97 8.85C71.63 8.51 71.46 8.11 71.46 7.65C71.46 7.19 71.62 6.8 71.94 6.48C72.28 6.14 72.68 5.97 73.14 5.97C73.44 5.97 73.88 5.97 74.46 5.97C75.04 5.95 75.47 5.94 75.75 5.94C75.93 5.94 76.02 5.85 76.02 5.67V2.61C76.02 2.15 76.18 1.75 76.5 1.41C76.84 1.07 77.24 0.900001 77.7 0.900001H78.12C78.58 0.900001 78.97 1.07 79.29 1.41C79.63 1.75 79.8 2.15 79.8 2.61V5.64C79.8 5.8 79.89 5.88 80.07 5.88C84.21 5.8 87.28 5.73 89.28 5.67C89.44 5.67 89.52 5.58 89.52 5.4V1.92C89.52 1.46 89.68 1.06 90 0.72C90.34 0.38 90.74 0.210001 91.2 0.210001H91.5C91.96 0.210001 92.36 0.38 92.7 0.72C93.04 1.06 93.21 1.46 93.21 1.92V5.28C93.21 5.44 93.29 5.52 93.45 5.52C93.97 5.5 94.73 5.47 95.73 5.43C96.19 5.41 96.59 5.56 96.93 5.88C97.29 6.2 97.48 6.59 97.5 7.05C97.52 7.51 97.36 7.92 97.02 8.28C96.7 8.62 96.31 8.8 95.85 8.82C95.57 8.84 95.17 8.86 94.65 8.88C94.13 8.9 93.73 8.92 93.45 8.94C93.29 8.94 93.21 9.02 93.21 9.18V13.8C93.21 15.36 92.94 16.45 92.4 17.07C91.88 17.69 90.98 18 89.7 18C88.64 18 87.08 17.78 85.02 17.34C84.56 17.24 84.2 16.98 83.94 16.56C83.7 16.14 83.63 15.7 83.73 15.24L83.79 15.09C83.89 14.63 84.13 14.28 84.51 14.04C84.91 13.8 85.33 13.72 85.77 13.8C87.17 14.1 88.15 14.25 88.71 14.25C89.09 14.25 89.32 14.18 89.4 14.04C89.48 13.9 89.52 13.47 89.52 12.75V9.33C89.52 9.15 89.43 9.06 89.25 9.06C85.21 9.18 82.14 9.26 80.04 9.3C79.88 9.3 79.8 9.38 79.8 9.54V18.21C79.8 19.41 79.94 20.28 80.22 20.82C80.52 21.34 81.07 21.7 81.87 21.9C82.67 22.1 83.98 22.2 85.8 22.2C87.9 22.2 90.2 22.07 92.7 21.81C93.16 21.77 93.57 21.9 93.93 22.2C94.31 22.48 94.52 22.85 94.56 23.31V23.43C94.6 23.91 94.47 24.33 94.17 24.69C93.89 25.07 93.51 25.28 93.03 25.32C90.63 25.58 88.22 25.71 85.8 25.71C83.08 25.71 81.04 25.49 79.68 25.05C78.32 24.63 77.37 23.91 76.83 22.89C76.29 21.85 76.02 20.29 76.02 18.21V9.6C76.02 9.42 75.93 9.33 75.75 9.33C75.47 9.33 75.04 9.34 74.46 9.36C73.88 9.36 73.45 9.36 73.17 9.36Z" fill="#829993"/>
<path d="M121.32 22.47C121.6 21.79 121.74 21.24 121.74 20.82C121.74 20.2 121.5 19.73 121.02 19.41C120.54 19.07 119.68 18.9 118.44 18.9C117.44 18.9 116.67 19.07 116.13 19.41C115.61 19.73 115.35 20.13 115.35 20.61C115.35 22.01 117.05 22.71 120.45 22.71H120.99C121.13 22.71 121.24 22.63 121.32 22.47ZM111.36 15.63C110.96 15.81 110.56 15.83 110.16 15.69C109.78 15.55 109.49 15.29 109.29 14.91C109.09 14.53 109.05 14.13 109.17 13.71C109.29 13.27 109.54 12.94 109.92 12.72L122.58 5.07L122.61 5.04L122.58 5.01H112.29C111.85 5.01 111.46 4.85 111.12 4.53C110.8 4.21 110.64 3.82 110.64 3.36C110.64 2.9 110.8 2.51 111.12 2.19C111.46 1.87 111.85 1.71 112.29 1.71H128.04C128.5 1.71 128.9 1.88 129.24 2.22C129.6 2.54 129.78 2.93 129.78 3.39C129.82 4.49 129.33 5.33 128.31 5.91L119.94 10.56V10.59H120C121.32 10.33 122.53 10.2 123.63 10.2C126.49 10.2 128.65 10.79 130.11 11.97C131.59 13.15 132.33 14.83 132.33 17.01C132.33 19.85 131.3 22.05 129.24 23.61C127.18 25.15 124.25 25.92 120.45 25.92C117.47 25.92 115.24 25.46 113.76 24.54C112.28 23.64 111.54 22.33 111.54 20.61C111.54 19.29 112.17 18.18 113.43 17.28C114.69 16.36 116.43 15.9 118.65 15.9C120.93 15.9 122.58 16.28 123.6 17.04C124.62 17.8 125.13 18.92 125.13 20.4C125.13 20.76 125.08 21.21 124.98 21.75C124.96 21.81 124.97 21.86 125.01 21.9C125.07 21.92 125.12 21.92 125.16 21.9C127.14 21.04 128.13 19.53 128.13 17.37C128.13 15.99 127.64 14.95 126.66 14.25C125.7 13.55 124.16 13.2 122.04 13.2C118.46 13.2 114.9 14.01 111.36 15.63Z" fill="#829993"/>
</svg>
