<svg width="30" height="30" viewBox="0 0 30 30" fill="none" xmlns="http://www.w3.org/2000/svg">
<path d="M21.4511 2.63662C20.6111 2.62449 19.783 2.28149 19.1805 1.69611C18.1 0.646372 16.6255 0 15 0C13.3745 0 11.9 0.646372 10.8195 1.69611C10.217 2.28149 9.38886 2.62449 8.54887 2.63662C7.04252 2.65837 5.5428 3.24394 4.3934 4.39335C3.244 5.54275 2.65842 7.04246 2.63667 8.54881C2.62454 9.38882 2.28153 10.2169 1.69614 10.8195C0.646386 11.9 0 13.3745 0 15C0 16.6255 0.646385 18.1 1.69614 19.1805C2.28153 19.7831 2.62454 20.6112 2.63667 21.4512C2.65842 22.9575 3.244 24.4573 4.3934 25.6067C5.5428 26.7561 7.04252 27.3416 8.54887 27.3634C9.38886 27.3755 10.217 27.7185 10.8195 28.3039C11.9 29.3536 13.3745 30 15 30C16.6255 30 18.1 29.3536 19.1805 28.3039C19.783 27.7185 20.6111 27.3755 21.4511 27.3634C22.9575 27.3416 24.4572 26.7561 25.6066 25.6067C26.756 24.4573 27.3416 22.9575 27.3633 21.4512C27.3754 20.6112 27.7185 19.7831 28.3039 19.1805C29.3536 18.1 30 16.6255 30 15C30 13.3745 29.3536 11.9 28.3038 10.8195C27.7185 10.2169 27.3754 9.38881 27.3633 8.5488C27.3416 7.04246 26.756 5.54274 25.6066 4.39335C24.4572 3.24395 22.9575 2.65837 21.4511 2.63662Z" fill="#677D78"/>
<path d="M20.1032 5.95461C19.2672 5.8718 18.4372 5.528 17.7875 4.99543C17.0286 4.37333 16.0579 4 15 4C13.9421 4 12.9714 4.37333 12.2125 4.99543C11.5628 5.528 10.7328 5.8718 9.89681 5.95461C8.92026 6.05135 7.96987 6.47374 7.22182 7.22179C6.47378 7.96983 6.05139 8.92022 5.95465 9.89677C5.87183 10.7328 5.52803 11.5628 4.99545 12.2125C4.37334 12.9714 4 13.9421 4 15C4 16.0579 4.37334 17.0286 4.99545 17.7875C5.52803 18.4372 5.87183 19.2672 5.95465 20.1032C6.05139 21.0798 6.47378 22.0302 7.22182 22.7782C7.96987 23.5263 8.92026 23.9487 9.89681 24.0454C10.7328 24.1282 11.5628 24.472 12.2125 25.0046C12.9714 25.6267 13.9421 26 15 26C16.0579 26 17.0286 25.6267 17.7875 25.0046C18.4372 24.472 19.2672 24.1282 20.1032 24.0454C21.0797 23.9487 22.0301 23.5263 22.7782 22.7782C23.5262 22.0302 23.9486 21.0798 24.0453 20.1032C24.1282 19.2672 24.472 18.4372 25.0045 17.7875C25.6267 17.0286 26 16.0579 26 15C26 13.9421 25.6267 12.9714 25.0045 12.2125C24.472 11.5628 24.1282 10.7328 24.0453 9.89676C23.9486 8.92021 23.5262 7.96983 22.7782 7.22179C22.0301 6.47374 21.0797 6.05135 20.1032 5.95461Z" fill="#F0F3F2"/>
<path d="M8.5 14.2L13.3 19L21.3 11" stroke="#677D78" stroke-width="3"/>
</svg>
