<svg width="80" height="23" viewBox="0 0 80 23" fill="none" xmlns="http://www.w3.org/2000/svg">
<path d="M1.32501 21.1L1.20001 20.9C0.966676 20.5834 0.875009 20.2334 0.925009 19.85C0.991676 19.4667 1.18334 19.1584 1.50001 18.925L13.75 9.97504C13.7667 9.97504 13.775 9.9667 13.775 9.95004C13.775 9.93337 13.7583 9.92504 13.725 9.92504H3.57501C3.19168 9.92504 2.85834 9.78337 2.57501 9.50004C2.29168 9.2167 2.15001 8.88337 2.15001 8.50004C2.15001 8.11671 2.29168 7.78337 2.57501 7.50004C2.85834 7.2167 3.19168 7.07504 3.57501 7.07504H16.875C17.2583 7.07504 17.5917 7.2167 17.875 7.50004C18.1583 7.78337 18.3 8.11671 18.3 8.50004V8.92504C18.3 9.87504 17.925 10.6334 17.175 11.2L13.05 14.275V14.3C13.05 14.3167 13.0667 14.325 13.1 14.325H13.125C13.525 14.325 13.875 14.525 14.175 14.925C14.475 15.3084 14.75 15.9917 15 16.975C15.2333 17.9084 15.4833 18.4917 15.75 18.725C16.0333 18.9584 16.5833 19.075 17.4 19.075C17.85 19.075 18.3833 19.0334 19 18.95C19.4 18.9 19.7583 18.9834 20.075 19.2C20.3917 19.4 20.5833 19.6834 20.65 20.05L20.675 20.1C20.7583 20.4834 20.6833 20.8417 20.45 21.175C20.2167 21.5084 19.9083 21.7084 19.525 21.775C18.5083 21.925 17.6917 22 17.075 22C15.5417 22 14.4083 21.7584 13.675 21.275C12.9417 20.8084 12.4333 20 12.15 18.85C11.9167 17.95 11.6833 17.3334 11.45 17C11.2333 16.6667 10.9667 16.5 10.65 16.5C10.3333 16.5 9.84168 16.7167 9.17501 17.15C8.52501 17.5834 6.56668 19 3.30001 21.4C2.98334 21.6334 2.62501 21.7167 2.22501 21.65C1.84168 21.6 1.54168 21.4167 1.32501 21.1ZM6.25001 1.52504C8.93334 1.85837 11.875 2.0667 15.075 2.15004C15.4583 2.1667 15.7917 2.3167 16.075 2.60004C16.3583 2.8667 16.5 3.1917 16.5 3.57504V3.67504C16.5 4.05837 16.3583 4.3917 16.075 4.67504C15.8083 4.95837 15.4833 5.0917 15.1 5.07504C12.15 4.9917 9.07501 4.75004 5.87501 4.35004C5.49168 4.30004 5.17501 4.1167 4.92501 3.80004C4.69168 3.48337 4.60001 3.13337 4.65001 2.75004C4.70001 2.3667 4.88334 2.05837 5.20001 1.82504C5.51668 1.57504 5.86668 1.47504 6.25001 1.52504Z" fill="#829993"/>
<path d="M31.65 14.875C31.2667 14.7917 30.9583 14.5917 30.725 14.275C30.5083 13.9417 30.4333 13.5834 30.5 13.2C30.9 10.9 31.175 9.22504 31.325 8.17504C31.3917 7.77504 31.575 7.45004 31.875 7.20004C32.175 6.93337 32.525 6.8167 32.925 6.85004L33.35 6.90004C33.7333 6.93337 34.0417 7.10004 34.275 7.40004C34.525 7.70004 34.625 8.0417 34.575 8.42504C34.3583 10.0084 34.2 11.1167 34.1 11.75V11.8H34.125L34.15 11.775C35.25 11.025 36.4667 10.4334 37.8 10C39.15 9.55004 40.4167 9.32504 41.6 9.32504C44.0833 9.32504 45.9083 9.81671 47.075 10.8C48.2583 11.7667 48.85 13.25 48.85 15.25C48.85 17.4667 47.9167 19.1917 46.05 20.425C44.1833 21.6417 41.475 22.25 37.925 22.25C36.6083 22.25 35.1667 22.1834 33.6 22.05C33.2 22.0167 32.8667 21.85 32.6 21.55C32.35 21.25 32.2417 20.9 32.275 20.5V20.45C32.2917 20.0667 32.45 19.75 32.75 19.5C33.0667 19.25 33.4167 19.1417 33.8 19.175C35.7167 19.3417 37.0917 19.425 37.925 19.425C40.225 19.425 41.9917 19.0584 43.225 18.325C44.475 17.575 45.1 16.55 45.1 15.25C45.1 13.2 43.7667 12.175 41.1 12.175C39.25 12.175 37.0333 12.9417 34.45 14.475C33.5833 14.975 32.7167 15.125 31.85 14.925L31.65 14.875ZM35.2 2.17504C38.2833 2.50837 41.3083 2.70004 44.275 2.75004C44.6583 2.75004 44.9833 2.8917 45.25 3.17504C45.5333 3.45837 45.675 3.7917 45.675 4.17504C45.675 4.55837 45.5333 4.8917 45.25 5.17504C44.9833 5.4417 44.6583 5.57504 44.275 5.57504C41.0583 5.52504 37.9167 5.33337 34.85 5.00004C34.45 4.95004 34.125 4.7667 33.875 4.45004C33.6417 4.13337 33.55 3.78337 33.6 3.40004C33.65 3.0167 33.8333 2.70837 34.15 2.47504C34.4667 2.2417 34.8167 2.1417 35.2 2.17504Z" fill="#829993"/>
<path d="M61.35 4.75004C61.0667 4.4667 60.925 4.13337 60.925 3.75004C60.925 3.3667 61.0667 3.03337 61.35 2.75004C61.6333 2.4667 61.9667 2.32504 62.35 2.32504H70.475C70.8583 2.32504 71.1833 2.4667 71.45 2.75004C71.7333 3.03337 71.875 3.3667 71.875 3.75004V4.20004C71.875 4.60004 71.75 4.96671 71.5 5.30004C71.2667 5.63337 70.9583 5.8917 70.575 6.07504C69.8083 6.42504 69.2167 6.8417 68.8 7.32504C68.3833 7.7917 68.175 8.2667 68.175 8.75004C68.175 9.25004 68.3167 9.75837 68.6 10.275C68.9 10.7917 69.4417 11.4917 70.225 12.375C71.2083 13.4917 71.8917 14.425 72.275 15.175C72.6583 15.925 72.85 16.7 72.85 17.5C72.85 19.1 72.2833 20.375 71.15 21.325C70.0333 22.275 68.5417 22.75 66.675 22.75C65.625 22.75 64.5417 22.55 63.425 22.15C63.0583 22.0167 62.8 21.7584 62.65 21.375C62.5 20.9917 62.5 20.6167 62.65 20.25L62.7 20.125C62.8333 19.775 63.0833 19.525 63.45 19.375C63.8167 19.2084 64.1833 19.1917 64.55 19.325C65.3333 19.6084 65.9833 19.75 66.5 19.75C67.3167 19.75 67.975 19.5417 68.475 19.125C68.9917 18.7084 69.25 18.1667 69.25 17.5C69.25 16.9334 69.1 16.3834 68.8 15.85C68.5 15.3 67.925 14.575 67.075 13.675C66.2083 12.7584 65.5917 11.95 65.225 11.25C64.8583 10.5334 64.675 9.80837 64.675 9.07504C64.675 7.75837 65.4417 6.48337 66.975 5.25004C66.9917 5.23337 67 5.2167 67 5.20004C67 5.18337 66.9917 5.17504 66.975 5.17504H62.35C61.9667 5.17504 61.6333 5.03337 61.35 4.75004ZM72.875 1.70004H72.9C73.25 1.5167 73.6167 1.48337 74 1.60004C74.3833 1.7167 74.6667 1.95004 74.85 2.30004C75.0333 2.63337 75.3083 3.15004 75.675 3.85004C75.8417 4.20004 75.8583 4.55837 75.725 4.92504C75.5917 5.2917 75.35 5.55837 75 5.72504C74.6333 5.89171 74.2667 5.90837 73.9 5.77504C73.5333 5.6417 73.2583 5.40004 73.075 5.05004C73.0083 4.90004 72.7417 4.40837 72.275 3.57504C72.0917 3.2417 72.0583 2.89171 72.175 2.52504C72.2917 2.15837 72.525 1.88337 72.875 1.70004ZM78.8 1.27504C79.35 2.32504 79.6333 2.8667 79.65 2.90004C79.8333 3.25004 79.8583 3.60837 79.725 3.97504C79.6083 4.3417 79.375 4.60837 79.025 4.77504L78.95 4.82504C78.6 4.9917 78.2333 5.0167 77.85 4.90004C77.4833 4.7667 77.2083 4.52504 77.025 4.17504C76.925 4.00837 76.7833 3.75004 76.6 3.40004C76.4167 3.05004 76.2833 2.7917 76.2 2.62504C76.0167 2.2917 75.975 1.93337 76.075 1.55004C76.1917 1.1667 76.425 0.891704 76.775 0.725037L76.85 0.700038C77.2 0.516705 77.5667 0.483371 77.95 0.600038C78.3333 0.700037 78.6167 0.925037 78.8 1.27504ZM78.375 19.375C77.9917 19.4917 77.625 19.4584 77.275 19.275C76.925 19.0917 76.6917 18.8167 76.575 18.45C75.8083 16.2834 74.9417 14.2834 73.975 12.45C73.7917 12.1167 73.7583 11.775 73.875 11.425C73.9917 11.0584 74.225 10.7917 74.575 10.625L74.775 10.525C75.1417 10.3584 75.5167 10.3417 75.9 10.475C76.2833 10.6084 76.5667 10.8584 76.75 11.225C77.8 13.2584 78.7083 15.3667 79.475 17.55C79.6083 17.9167 79.5833 18.275 79.4 18.625C79.2167 18.9584 78.9417 19.1834 78.575 19.3L78.375 19.375ZM57.4 19.325C57.0333 19.175 56.7833 18.925 56.65 18.575C56.5333 18.2084 56.5583 17.85 56.725 17.5C57.625 15.5334 58.3917 13.5917 59.025 11.675C59.1583 11.2917 59.3917 11.0084 59.725 10.825C60.0583 10.625 60.4167 10.5667 60.8 10.65L61.05 10.7C61.4333 10.7834 61.7167 11 61.9 11.35C62.1 11.6834 62.1417 12.0334 62.025 12.4C61.375 14.4834 60.55 16.575 59.55 18.675C59.3833 19.0417 59.1083 19.3 58.725 19.45C58.3417 19.5834 57.9667 19.575 57.6 19.425L57.4 19.325Z" fill="#829993"/>
</svg>
