<svg width="100" height="27" viewBox="0 0 100 27" fill="none" xmlns="http://www.w3.org/2000/svg">
<path d="M8.26 15.73C6.86 16.15 5.8 16.72 5.08 17.44C4.36 18.16 4 18.95 4 19.81C4 20.59 4.31 21.29 4.93 21.91C5.57 22.51 6.26 22.81 7 22.81C7.58 22.81 7.97 22.69 8.17 22.45C8.39 22.21 8.5 21.76 8.5 21.1V15.91C8.5 15.75 8.42 15.69 8.26 15.73ZM7.39 26.2C5.39 26.2 3.69 25.59 2.29 24.37C0.890002 23.13 0.190002 21.61 0.190002 19.81C0.190002 18.09 0.890002 16.53 2.29 15.13C3.71 13.73 5.7 12.71 8.26 12.07C8.42 12.03 8.5 11.92 8.5 11.74V7.96004C8.5 7.78004 8.41 7.69004 8.23 7.69004H3.1C2.66 7.69004 2.28 7.54004 1.96 7.24004C1.66 6.92004 1.51 6.54004 1.51 6.10004C1.51 5.66004 1.66 5.29004 1.96 4.99004C2.28 4.67004 2.66 4.51004 3.1 4.51004H8.23C8.41 4.51004 8.5 4.42004 8.5 4.24004V2.50004C8.5 2.04004 8.67 1.64004 9.01 1.30004C9.35 0.960039 9.75 0.790039 10.21 0.790039H10.6C11.06 0.790039 11.46 0.960039 11.8 1.30004C12.14 1.64004 12.31 2.04004 12.31 2.50004V4.24004C12.31 4.42004 12.39 4.51004 12.55 4.51004H17.29C17.73 4.51004 18.11 4.67004 18.43 4.99004C18.75 5.29004 18.91 5.66004 18.91 6.10004C18.91 6.54004 18.75 6.92004 18.43 7.24004C18.11 7.54004 17.73 7.69004 17.29 7.69004H12.55C12.39 7.69004 12.31 7.78004 12.31 7.96004V11.2C12.31 11.36 12.4 11.44 12.58 11.44C12.9 11.42 13.41 11.41 14.11 11.41C17.07 11.41 19.46 12.1 21.28 13.48C23.1 14.86 24.01 16.53 24.01 18.49C24.01 22.75 21.71 25.36 17.11 26.32C16.63 26.42 16.19 26.33 15.79 26.05C15.39 25.79 15.13 25.42 15.01 24.94L14.98 24.85C14.88 24.41 14.95 24 15.19 23.62C15.45 23.24 15.8 23 16.24 22.9C17.58 22.58 18.56 22.08 19.18 21.4C19.8 20.7 20.11 19.8 20.11 18.7C20.11 17.7 19.56 16.84 18.46 16.12C17.38 15.38 15.93 15.01 14.11 15.01C13.41 15.01 12.9 15.02 12.58 15.04C12.4 15.04 12.31 15.13 12.31 15.31V21.31C12.31 23.15 11.95 24.42 11.23 25.12C10.51 25.84 9.23 26.2 7.39 26.2ZM23.5 4.63004C24.58 6.09004 25.52 7.46004 26.32 8.74004C26.56 9.12004 26.62 9.54004 26.5 10C26.4 10.44 26.16 10.77 25.78 10.99C25.38 11.21 24.96 11.27 24.52 11.17C24.08 11.05 23.74 10.8 23.5 10.42C22.54 8.92004 21.66 7.62004 20.86 6.52004C20.6 6.16004 20.5 5.76004 20.56 5.32004C20.62 4.88004 20.83 4.53004 21.19 4.27004C21.57 4.01004 21.98 3.92004 22.42 4.00004C22.88 4.06004 23.24 4.27004 23.5 4.63004Z" fill="#829993"/>
<path d="M44.8 19.06C42.62 17.56 41.27 16.52 40.75 15.94C40.25 15.36 40 14.58 40 13.6C40 12.54 40.27 11.72 40.81 11.14C41.35 10.56 42.71 9.57004 44.89 8.17004C48.43 5.87004 51.52 3.73004 54.16 1.75004C54.54 1.47004 54.97 1.36004 55.45 1.42004C55.93 1.46004 56.32 1.67004 56.62 2.05004L56.92 2.44004C57.22 2.80004 57.34 3.21004 57.28 3.67004C57.24 4.13004 57.03 4.49004 56.65 4.75004C53.35 7.19004 50.27 9.33004 47.41 11.17C46.21 11.93 45.44 12.45 45.1 12.73C44.76 13.01 44.59 13.3 44.59 13.6C44.59 13.88 44.74 14.16 45.04 14.44C45.34 14.72 46.04 15.23 47.14 15.97C50.6 18.31 54.08 20.89 57.58 23.71C57.94 23.99 58.13 24.37 58.15 24.85C58.19 25.31 58.05 25.71 57.73 26.05L57.4 26.44C57.08 26.78 56.68 26.96 56.2 26.98C55.72 27.02 55.29 26.89 54.91 26.59C51.85 24.11 48.48 21.6 44.8 19.06Z" fill="#829993"/>
<path d="M88.81 23.26C89.09 22.58 89.23 22.03 89.23 21.61C89.23 20.99 88.99 20.52 88.51 20.2C88.03 19.86 87.17 19.69 85.93 19.69C84.93 19.69 84.16 19.86 83.62 20.2C83.1 20.52 82.84 20.92 82.84 21.4C82.84 22.8 84.54 23.5 87.94 23.5H88.48C88.62 23.5 88.73 23.42 88.81 23.26ZM78.85 16.42C78.45 16.6 78.05 16.62 77.65 16.48C77.27 16.34 76.98 16.08 76.78 15.7C76.58 15.32 76.54 14.92 76.66 14.5C76.78 14.06 77.03 13.73 77.41 13.51L90.07 5.86004L90.1 5.83004L90.07 5.80004H79.78C79.34 5.80004 78.95 5.64004 78.61 5.32004C78.29 5.00004 78.13 4.61004 78.13 4.15004C78.13 3.69004 78.29 3.30004 78.61 2.98004C78.95 2.66004 79.34 2.50004 79.78 2.50004H95.53C95.99 2.50004 96.39 2.67004 96.73 3.01004C97.09 3.33004 97.27 3.72004 97.27 4.18004C97.31 5.28004 96.82 6.12004 95.8 6.70004L87.43 11.35V11.38H87.49C88.81 11.12 90.02 10.99 91.12 10.99C93.98 10.99 96.14 11.58 97.6 12.76C99.08 13.94 99.82 15.62 99.82 17.8C99.82 20.64 98.79 22.84 96.73 24.4C94.67 25.94 91.74 26.71 87.94 26.71C84.96 26.71 82.73 26.25 81.25 25.33C79.77 24.43 79.03 23.12 79.03 21.4C79.03 20.08 79.66 18.97 80.92 18.07C82.18 17.15 83.92 16.69 86.14 16.69C88.42 16.69 90.07 17.07 91.09 17.83C92.11 18.59 92.62 19.71 92.62 21.19C92.62 21.55 92.57 22 92.47 22.54C92.45 22.6 92.46 22.65 92.5 22.69C92.56 22.71 92.61 22.71 92.65 22.69C94.63 21.83 95.62 20.32 95.62 18.16C95.62 16.78 95.13 15.74 94.15 15.04C93.19 14.34 91.65 13.99 89.53 13.99C85.95 13.99 82.39 14.8 78.85 16.42Z" fill="#829993"/>
</svg>
