<svg width="286" height="270" viewBox="0 0 286 270" fill="none" xmlns="http://www.w3.org/2000/svg">
<path d="M213 86.8594C239.51 113.369 239.51 156.35 213 182.859M245 55C289.183 99.1828 289.183 170.817 245 215" stroke="#648079" stroke-opacity="0.15" stroke-width="15" stroke-linecap="round"/>
<path d="M0 59.5372C0 56.7758 2.23858 54.5372 5 54.5372H60C62.7614 54.5372 65 56.7758 65 59.5372V209.537C65 212.299 62.7614 214.537 60 214.537H5C2.23858 214.537 0 212.299 0 209.537V59.5372Z" fill="#648079" fill-opacity="0.15"/>
<path d="M75 57.8042C75 56.0624 75.9065 54.4461 77.3927 53.5378L157.393 4.64888C160.725 2.6128 165 5.01064 165 8.91529V261.085C165 264.989 160.725 267.387 157.393 265.351L77.3927 216.462C75.9065 215.554 75 213.938 75 212.196V57.8042Z" fill="#648079" fill-opacity="0.15"/>
</svg>
