<svg width="261" height="100" viewBox="0 0 261 100" fill="none" xmlns="http://www.w3.org/2000/svg">
<path d="M28.35 54.6C23.1 54.6 18.35 53.45 14.1 51.15C9.89998 48.8 6.59998 45.6 4.19998 41.55C1.79998 37.45 0.599976 32.85 0.599976 27.75C0.599976 22.65 1.79998 18.075 4.19998 14.025C6.59998 9.92502 9.92498 6.72502 14.175 4.42502C18.425 2.07502 23.175 0.900024 28.425 0.900024C32.525 0.900024 36.275 1.60002 39.675 3.00002C43.075 4.35002 45.975 6.37502 48.375 9.07502L43.5 13.8C39.55 9.65002 34.625 7.57502 28.725 7.57502C24.825 7.57502 21.3 8.45002 18.15 10.2C15 11.95 12.525 14.375 10.725 17.475C8.97498 20.525 8.09998 23.95 8.09998 27.75C8.09998 31.55 8.97498 35 10.725 38.1C12.525 41.15 15 43.55 18.15 45.3C21.3 47.05 24.825 47.925 28.725 47.925C34.575 47.925 39.5 45.825 43.5 41.625L48.375 46.35C45.975 49.05 43.05 51.1 39.6 52.5C36.2 53.9 32.45 54.6 28.35 54.6Z" fill="#648079"/>
<path d="M113.779 40.875H85.8791L80.1041 54H72.3791L96.1541 1.50002H103.579L127.429 54H119.554L113.779 40.875ZM111.154 34.875L99.8291 9.15002L88.5041 34.875H111.154Z" fill="#648079"/>
<path d="M157.761 1.50002H165.261V47.475H193.686V54H157.761V1.50002Z" fill="#648079"/>
<path d="M224.792 1.50002H232.292V47.475H260.717V54H224.792V1.50002Z" fill="#648079"/>
<path d="M84.26 88.73C82.86 89.15 81.8 89.72 81.08 90.44C80.36 91.16 80 91.95 80 92.81C80 93.59 80.31 94.29 80.93 94.91C81.57 95.51 82.26 95.81 83 95.81C83.58 95.81 83.97 95.69 84.17 95.45C84.39 95.21 84.5 94.76 84.5 94.1V88.91C84.5 88.75 84.42 88.69 84.26 88.73ZM83.39 99.2C81.39 99.2 79.69 98.59 78.29 97.37C76.89 96.13 76.19 94.61 76.19 92.81C76.19 91.09 76.89 89.53 78.29 88.13C79.71 86.73 81.7 85.71 84.26 85.07C84.42 85.03 84.5 84.92 84.5 84.74V80.96C84.5 80.78 84.41 80.69 84.23 80.69H79.1C78.66 80.69 78.28 80.54 77.96 80.24C77.66 79.92 77.51 79.54 77.51 79.1C77.51 78.66 77.66 78.29 77.96 77.99C78.28 77.67 78.66 77.51 79.1 77.51H84.23C84.41 77.51 84.5 77.42 84.5 77.24V75.5C84.5 75.04 84.67 74.64 85.01 74.3C85.35 73.96 85.75 73.79 86.21 73.79H86.6C87.06 73.79 87.46 73.96 87.8 74.3C88.14 74.64 88.31 75.04 88.31 75.5V77.24C88.31 77.42 88.39 77.51 88.55 77.51H93.29C93.73 77.51 94.11 77.67 94.43 77.99C94.75 78.29 94.91 78.66 94.91 79.1C94.91 79.54 94.75 79.92 94.43 80.24C94.11 80.54 93.73 80.69 93.29 80.69H88.55C88.39 80.69 88.31 80.78 88.31 80.96V84.2C88.31 84.36 88.4 84.44 88.58 84.44C88.9 84.42 89.41 84.41 90.11 84.41C93.07 84.41 95.46 85.1 97.28 86.48C99.1 87.86 100.01 89.53 100.01 91.49C100.01 95.75 97.71 98.36 93.11 99.32C92.63 99.42 92.19 99.33 91.79 99.05C91.39 98.79 91.13 98.42 91.01 97.94L90.98 97.85C90.88 97.41 90.95 97 91.19 96.62C91.45 96.24 91.8 96 92.24 95.9C93.58 95.58 94.56 95.08 95.18 94.4C95.8 93.7 96.11 92.8 96.11 91.7C96.11 90.7 95.56 89.84 94.46 89.12C93.38 88.38 91.93 88.01 90.11 88.01C89.41 88.01 88.9 88.02 88.58 88.04C88.4 88.04 88.31 88.13 88.31 88.31V94.31C88.31 96.15 87.95 97.42 87.23 98.12C86.51 98.84 85.23 99.2 83.39 99.2ZM99.5 77.63C100.58 79.09 101.52 80.46 102.32 81.74C102.56 82.12 102.62 82.54 102.5 83C102.4 83.44 102.16 83.77 101.78 83.99C101.38 84.21 100.96 84.27 100.52 84.17C100.08 84.05 99.74 83.8 99.5 83.42C98.54 81.92 97.66 80.62 96.86 79.52C96.6 79.16 96.5 78.76 96.56 78.32C96.62 77.88 96.83 77.53 97.19 77.27C97.57 77.01 97.98 76.92 98.42 77C98.88 77.06 99.24 77.27 99.5 77.63Z" fill="#648079"/>
<path d="M123.8 92.06C121.62 90.56 120.27 89.52 119.75 88.94C119.25 88.36 119 87.58 119 86.6C119 85.54 119.27 84.72 119.81 84.14C120.35 83.56 121.71 82.57 123.89 81.17C127.43 78.87 130.52 76.73 133.16 74.75C133.54 74.47 133.97 74.36 134.45 74.42C134.93 74.46 135.32 74.67 135.62 75.05L135.92 75.44C136.22 75.8 136.34 76.21 136.28 76.67C136.24 77.13 136.03 77.49 135.65 77.75C132.35 80.19 129.27 82.33 126.41 84.17C125.21 84.93 124.44 85.45 124.1 85.73C123.76 86.01 123.59 86.3 123.59 86.6C123.59 86.88 123.74 87.16 124.04 87.44C124.34 87.72 125.04 88.23 126.14 88.97C129.6 91.31 133.08 93.89 136.58 96.71C136.94 96.99 137.13 97.37 137.15 97.85C137.19 98.31 137.05 98.71 136.73 99.05L136.4 99.44C136.08 99.78 135.68 99.96 135.2 99.98C134.72 100.02 134.29 99.89 133.91 99.59C130.85 97.11 127.48 94.6 123.8 92.06Z" fill="#648079"/>
<path d="M170.81 96.26C171.09 95.58 171.23 95.03 171.23 94.61C171.23 93.99 170.99 93.52 170.51 93.2C170.03 92.86 169.17 92.69 167.93 92.69C166.93 92.69 166.16 92.86 165.62 93.2C165.1 93.52 164.84 93.92 164.84 94.4C164.84 95.8 166.54 96.5 169.94 96.5H170.48C170.62 96.5 170.73 96.42 170.81 96.26ZM160.85 89.42C160.45 89.6 160.05 89.62 159.65 89.48C159.27 89.34 158.98 89.08 158.78 88.7C158.58 88.32 158.54 87.92 158.66 87.5C158.78 87.06 159.03 86.73 159.41 86.51L172.07 78.86L172.1 78.83L172.07 78.8H161.78C161.34 78.8 160.95 78.64 160.61 78.32C160.29 78 160.13 77.61 160.13 77.15C160.13 76.69 160.29 76.3 160.61 75.98C160.95 75.66 161.34 75.5 161.78 75.5H177.53C177.99 75.5 178.39 75.67 178.73 76.01C179.09 76.33 179.27 76.72 179.27 77.18C179.31 78.28 178.82 79.12 177.8 79.7L169.43 84.35V84.38H169.49C170.81 84.12 172.02 83.99 173.12 83.99C175.98 83.99 178.14 84.58 179.6 85.76C181.08 86.94 181.82 88.62 181.82 90.8C181.82 93.64 180.79 95.84 178.73 97.4C176.67 98.94 173.74 99.71 169.94 99.71C166.96 99.71 164.73 99.25 163.25 98.33C161.77 97.43 161.03 96.12 161.03 94.4C161.03 93.08 161.66 91.97 162.92 91.07C164.18 90.15 165.92 89.69 168.14 89.69C170.42 89.69 172.07 90.07 173.09 90.83C174.11 91.59 174.62 92.71 174.62 94.19C174.62 94.55 174.57 95 174.47 95.54C174.45 95.6 174.46 95.65 174.5 95.69C174.56 95.71 174.61 95.71 174.65 95.69C176.63 94.83 177.62 93.32 177.62 91.16C177.62 89.78 177.13 88.74 176.15 88.04C175.19 87.34 173.65 86.99 171.53 86.99C167.95 86.99 164.39 87.8 160.85 89.42Z" fill="#648079"/>
</svg>
